<svg width="220" height="210" viewBox="0 0 220 210" fill="none" xmlns="http://www.w3.org/2000/svg">
<g filter="url(#filter0_d)">
<rect x="5" y="25" width="180" height="180" rx="5" fill="#4F4F4F"/>
<rect x="5" y="25" width="180" height="180" rx="5" stroke="#828282"/>
</g>
<g filter="url(#filter1_d)">
<rect x="20" y="15" width="180" height="180" rx="5" fill="#27AE60"/>
<rect x="20" y="15" width="180" height="180" rx="5" stroke="#828282"/>
</g>
<g filter="url(#filter2_d)">
<rect x="35" y="5" width="180" height="180" rx="5" fill="#F2F2F2"/>
<rect x="35" y="5" width="180" height="180" rx="5" stroke="#828282"/>
</g>
<path d="M66.6817 48.8422C66.6817 48.8422 74.5822 38.7538 80.054 34.5728C81.7974 33.2419 94.7637 25.3707 103.09 52.4609C107.645 67.2934 107.722 78.3423 97.3673 83.0543C91.167 85.8766 93.383 91.1602 93.383 91.1602" fill="url(#paint0_linear)"/>
<path d="M79.2972 33.3439C73.7466 37.5849 65.9976 47.4463 65.6707 47.8631C65.1862 48.4832 65.243 49.4259 65.801 49.9654C66.3575 50.5042 67.2032 50.4421 67.6884 49.8212C67.7672 49.7206 75.5437 39.8242 80.8122 35.8001C80.97 35.6774 84.8135 32.8087 89.4944 34.5349C94.417 36.3511 98.6814 42.7172 101.823 52.9426C106.825 69.2237 105.341 77.8192 96.8618 81.6748C94.4155 82.7909 92.805 84.4037 92.0765 86.4781C91.115 89.2141 92.1277 91.6854 92.1715 91.791C92.4807 92.5325 93.2665 92.8472 93.9339 92.5075C94.603 92.1714 94.9 91.2915 94.6018 90.5443C94.5967 90.53 94.0248 89.0643 94.5823 87.5286C95.0406 86.2612 96.148 85.2172 97.8746 84.4336C110.667 78.6098 108.057 64.03 104.355 51.9771C100.882 40.6784 96.1666 33.8605 90.3377 31.7083C84.5109 29.5582 79.8124 32.9521 79.2972 33.3439" fill="#363254"/>
<path d="M172.924 54.6838H189.517C190.909 54.6838 192.037 55.7492 192.037 57.0594C192.037 58.3703 190.909 59.4336 189.517 59.4336H176.493L172.924 54.6838" fill="url(#paint1_linear)"/>
<path d="M189.517 56.1724C190.213 56.1724 190.698 56.6405 190.698 57.0594C190.698 57.4776 190.213 57.9457 189.517 57.9457C189.517 57.9457 178.254 57.9457 177.119 57.9457C176.852 57.5932 176.453 57.0573 175.787 56.1724C179.709 56.1724 189.517 56.1724 189.517 56.1724ZM170.062 53.1952L175.868 60.9236H189.517C191.645 60.9236 193.375 59.1903 193.375 57.0594C193.375 54.9279 191.645 53.1952 189.517 53.1952H170.062Z" fill="#363254"/>
<path d="M194.652 49.1619C196.933 47.908 199.599 48.2149 200.613 49.8462C201.622 51.4818 200.592 53.8175 198.311 55.0763C196.034 56.3287 190.065 57.8437 189.053 56.2059C188.04 54.5746 192.374 50.415 194.652 49.1619Z" fill="#8B9DD7"/>
<path d="M195.243 50.4963C197.013 49.5244 198.956 49.7984 199.51 50.6926C199.664 50.943 199.7 51.2306 199.62 51.5746C199.477 52.1954 198.901 53.0903 197.716 53.7433C195.516 54.9521 191.61 55.6615 190.403 55.3189C190.849 54.165 193.292 51.571 195.243 50.4963V50.4963ZM194.059 47.8281C192.151 48.875 188.272 52.2126 187.658 54.8508L187.952 57.0509C189.785 60.0209 197.18 57.3599 198.904 56.41C200.621 55.4645 201.826 53.9745 202.211 52.3217C202.486 51.1436 202.31 49.9654 201.714 49.0027C200.317 46.7506 196.957 46.2353 194.059 47.8281Z" fill="#363254"/>
<path d="M198.705 58.7999C201.15 59.7419 202.513 61.9234 201.758 63.6746C200.996 65.428 198.401 66.0788 195.957 65.134C193.517 64.1941 188.609 60.6503 189.366 58.9013C190.127 57.1444 196.264 57.858 198.705 58.7999" fill="#8B9DD7"/>
<path d="M199.144 57.3948H199.142H199.144ZM198.266 60.2057H198.267C199.581 60.7146 200.301 61.5602 200.534 62.1839C200.711 62.6606 200.591 62.9403 200.551 63.0317C200.149 63.9608 198.284 64.456 196.396 63.7274C194.239 62.8975 191.339 60.559 190.793 59.4829C191.805 59.0918 195.906 59.2945 198.266 60.2057H198.266ZM188.161 58.2554L188.163 60.4155C189.105 62.9403 193.452 65.7455 195.52 66.5426C198.631 67.7451 201.902 66.7696 202.963 64.3254C203.188 63.7981 203.301 63.2322 203.301 62.6584C203.301 62.1175 203.202 61.5709 203.003 61.0357C202.403 59.4336 200.997 58.1084 199.142 57.3948C197.292 56.6791 189.56 55.0249 188.162 58.2554" fill="#363254"/>
<path d="M199.062 53.4029C202.691 53.3757 205.648 54.8843 205.661 56.7761C205.679 58.6672 202.754 60.2215 199.123 60.2486C195.499 60.2771 187.287 58.8121 187.27 56.9224C187.253 55.0285 195.438 53.4343 199.062 53.4029" fill="#8B9DD7"/>
<path d="M204.323 56.7904C204.323 56.8625 204.265 57.003 204.102 57.1872C203.447 57.9315 201.603 58.7407 199.115 58.7592C196.003 58.7835 191.08 57.8094 189.186 56.9053C191.066 55.9676 195.965 54.9164 199.073 54.8922H199.071C202.508 54.8658 204.32 56.2901 204.323 56.7904H204.323ZM199.054 51.9128H199.052C196.416 51.9349 188.586 53.0061 186.578 55.2768L185.933 56.9374C185.97 61.3147 199.001 61.7386 199.133 61.7386C202.053 61.715 204.689 60.7724 206.012 59.2759C206.668 58.5345 207.009 57.6667 207 56.7611C206.979 53.9202 203.637 51.88 199.054 51.9128" fill="#363254"/>
<path d="M115.145 101.926V140.163C115.145 149.591 107.035 152.97 97.0334 152.97C87.0302 152.97 78.9246 149.591 78.9246 140.163V101.475" fill="url(#paint2_linear)"/>
<path d="M77.5867 101.475V140.163C77.5867 149.383 84.4911 154.459 97.0334 154.459C109.575 154.459 116.483 149.383 116.483 140.163V101.926C116.483 101.103 115.883 100.436 115.145 100.436C114.405 100.436 113.807 101.103 113.807 101.926V140.163C113.807 149.518 104.687 151.481 97.0334 151.481C89.383 151.481 80.263 149.518 80.263 140.163V101.475C80.263 100.653 79.6633 99.9861 78.9246 99.9861C78.1861 99.9861 77.5867 100.653 77.5867 101.475" fill="#363254"/>
<path d="M86.8615 140.117C86.8615 143.931 84.9449 147.032 82.5796 147.032C80.214 147.032 78.2968 143.931 78.2968 140.117C78.2968 136.296 80.214 127.668 82.5796 127.668C84.9449 127.668 86.8615 136.296 86.8615 140.117" fill="#8B9DD7"/>
<path d="M78.7434 140.117C78.7434 135.962 80.7745 128.164 82.5796 128.164C84.3839 128.164 86.4157 135.962 86.4157 140.117C86.4157 143.658 84.6958 146.537 82.5796 146.537C80.4648 146.537 78.7434 143.658 78.7434 140.117ZM77.8503 140.117C77.8503 144.204 79.9711 147.53 82.5796 147.53C85.187 147.53 87.3069 144.204 87.3069 140.117C87.3069 136.384 85.4236 127.17 82.5796 127.17C79.7362 127.17 77.8503 136.384 77.8503 140.117Z" fill="#363254"/>
<path d="M79.4504 140.806C79.4504 137.132 81.7682 130.517 83.4601 130.517C83.6222 130.517 83.781 130.61 83.9339 130.752C83.511 129.588 83.0266 128.817 82.5133 128.817C80.8202 128.817 79.4504 137.133 79.4504 140.806Z" fill="#A6BDE6"/>
<path d="M88.8811 143.791C88.8811 146.738 87.3574 149.128 85.4763 149.128C83.5934 149.128 82.0675 146.738 82.0675 143.791C82.0675 140.835 83.5934 134.178 85.4763 134.178C87.3574 134.178 88.8811 140.835 88.8811 143.791Z" fill="#8B9DD7"/>
<path d="M82.5133 143.791C82.5133 140.701 84.1137 134.676 85.4763 134.676C86.8391 134.676 88.4346 140.701 88.4346 143.791C88.4346 146.459 87.1068 148.631 85.4763 148.631C83.8416 148.631 82.5133 146.459 82.5133 143.791ZM81.6215 143.791C81.6215 147.006 83.3509 149.624 85.4763 149.624C87.5985 149.624 89.3272 147.006 89.3272 143.791C89.3272 141.274 87.9608 133.682 85.4763 133.682C82.9879 133.682 81.6215 141.274 81.6215 143.791Z" fill="#363254"/>
<path d="M83.5 142.035C83.3286 139.935 84.9256 136.449 86.1698 136.194C86.2862 136.176 86.4061 136.209 86.5252 136.266C86.1605 135.663 85.7479 135.182 85.3944 135.37C84.1628 136.049 83.3286 139.942 83.5 142.035" fill="#A6BDE6"/>
<path d="M170.55 102.392V140.629C170.55 150.058 162.441 153.436 152.44 153.436C142.437 153.436 134.328 150.058 134.328 140.629V101.941" fill="url(#paint3_linear)"/>
<path d="M132.989 101.941V140.629C132.989 149.847 139.897 154.925 152.44 154.925C158.085 154.925 162.612 153.897 165.896 151.87C169.816 149.45 171.888 145.563 171.888 140.629V102.392C171.888 101.57 171.289 100.904 170.55 100.904C169.812 100.904 169.214 101.57 169.214 102.392V140.629C169.214 144.524 167.702 147.349 164.596 149.268C161.754 151.02 157.552 151.947 152.44 151.947C144.788 151.947 135.667 149.981 135.667 140.629V101.941C135.667 101.118 135.067 100.451 134.328 100.451C133.589 100.451 132.989 101.118 132.989 101.941" fill="#363254"/>
<path d="M142.267 140.582C142.267 144.396 140.351 147.502 137.986 147.502C135.617 147.502 133.702 144.396 133.702 140.582C133.702 136.763 135.617 128.135 137.986 128.135C140.351 128.135 142.267 136.763 142.267 140.582Z" fill="#7483CA"/>
<path d="M134.147 140.582C134.147 138.632 134.655 135.547 135.38 133.082C136.187 130.337 137.187 128.631 137.986 128.631C139.79 128.631 141.822 136.428 141.822 140.582C141.822 144.125 140.101 147.005 137.986 147.005C135.869 147.005 134.147 144.125 134.147 140.582ZM134.532 132.773C133.78 135.326 133.255 138.538 133.255 140.582C133.255 144.671 135.377 147.998 137.986 147.998C140.593 147.998 142.713 144.671 142.713 140.582C142.713 136.849 140.829 127.639 137.986 127.639C136.379 127.639 135.221 130.429 134.532 132.773" fill="#363254"/>
<path d="M134.858 141.277C134.858 137.601 137.174 130.981 138.866 130.981C139.029 130.981 139.187 131.078 139.34 131.217C138.916 130.055 138.433 129.283 137.92 129.283C136.226 129.283 134.858 137.601 134.858 141.277" fill="#839AD6"/>
<path d="M144.288 144.255C144.288 147.207 142.765 149.591 140.882 149.591C139.001 149.591 137.475 147.207 137.475 144.255C137.475 141.3 139.001 134.644 140.882 134.644C142.765 134.644 144.288 141.3 144.288 144.255Z" fill="#7483CA"/>
<path d="M137.922 144.255C137.922 141.166 139.519 135.142 140.882 135.142C142.243 135.142 143.841 141.166 143.841 144.255C143.841 146.924 142.513 149.097 140.882 149.097C139.249 149.097 137.922 146.924 137.922 144.255ZM137.03 144.255C137.03 147.474 138.758 150.089 140.882 150.089C143.006 150.089 144.734 147.474 144.734 144.255C144.734 141.74 143.367 134.148 140.882 134.148C138.395 134.148 137.03 141.74 137.03 144.255Z" fill="#363254"/>
<path d="M138.907 142.501C138.734 140.403 140.331 136.918 141.576 136.662C141.693 136.643 141.814 136.674 141.931 136.732C141.567 136.129 141.154 135.647 140.8 135.836C139.568 136.515 138.734 140.407 138.907 142.501Z" fill="#839AD6"/>
<path d="M99.9076 49.7035C106.961 62.9339 106.21 74.1105 96.8113 79.9693C91.1844 83.4788 94.2821 88.1073 94.2821 88.1073" fill="url(#paint4_linear)"/>
<path d="M99.2255 48.4218C98.5888 48.8421 98.3778 49.7563 98.7564 50.4635C102.683 57.8244 104.088 64.491 102.822 69.7382C101.922 73.4682 99.6773 76.4733 96.1584 78.6705C93.9339 80.0563 92.6071 81.8047 92.2125 83.8642C91.6756 86.663 93.1469 88.903 93.21 88.9965C93.6488 89.6523 94.4769 89.785 95.0706 89.3033C95.6628 88.8209 95.7923 87.8911 95.363 87.2274C95.3565 87.2146 94.5409 85.9265 94.835 84.4579C95.0706 83.2833 95.9559 82.2107 97.4652 81.2688C101.64 78.6641 104.313 75.0468 105.408 70.5096C106.864 64.4689 105.362 57.0109 101.058 48.9428C100.682 48.2349 99.8588 48.0029 99.2255 48.4218" fill="#080604"/>
<path d="M141.112 40.3238C141.112 40.3238 129.401 40.1646 86.6122 41.8002C43.8258 43.4351 45.4049 61.1349 45.3384 86.5538V147.693C45.3384 152.865 49.2227 154.951 54.0155 154.951C58.8076 154.951 62.6977 152.865 62.6977 147.693C62.6977 147.693 63.8027 130.223 64.7567 119.596C66.8908 80.9891 107.289 125.945 136.656 123.847C163.343 121.938 184.358 111.312 184.358 86.0579C184.358 60.7981 170.586 40.3238 141.112 40.3238" fill="url(#paint5_linear)"/>
<path d="M46.6763 147.693V86.5538C46.6763 86.5595 46.6797 83.8599 46.6797 83.8599C46.687 60.3478 46.6928 44.8145 86.6571 43.2874C128.891 41.6746 140.978 41.8102 141.096 41.8109H141.112C154.568 41.8109 165.533 46.2853 172.821 54.7487C179.494 62.4943 183.02 73.3205 183.02 86.0578C183.02 113.316 157.761 120.845 136.571 122.361C125.419 123.156 112.264 116.795 100.657 111.181C87.6474 104.889 76.4119 99.4567 69.4944 104.173C65.8406 106.663 63.8546 111.679 63.4221 119.505C62.4819 129.974 61.3732 147.412 61.3629 147.589C61.3598 152.712 56.7583 153.462 54.0155 153.462C51.2754 153.462 46.6764 152.712 46.6764 147.693H46.6763ZM86.567 40.313C44.0169 41.9379 44.0097 59.5214 44.0034 83.8578L44 86.5495V147.693C44 153.17 47.7446 156.443 54.0155 156.443C60.2919 156.443 64.036 153.17 64.036 147.693C64.0438 147.621 65.1471 130.226 66.0887 119.743C66.4679 112.902 68.0385 108.659 70.8919 106.712C76.6242 102.806 87.7768 108.201 99.5906 113.913C111.475 119.66 124.944 126.176 136.742 125.332C168.311 123.074 185.696 109.126 185.696 86.0578C185.696 72.5391 181.912 61.0007 174.754 52.6871C166.949 43.6249 155.315 38.8337 141.112 38.8337H141.128C141.011 38.8321 128.895 38.6917 86.567 40.313" fill="#363254"/>
<path d="M46.5057 88.2301C46.5514 93.9718 45.8514 144.123 48.5971 147.135C47.7344 144.914 49.6216 96.3275 49.5974 93.2739L49.5721 91.487C49.5721 90.6364 49.5721 89.7979 49.5721 88.963C48.5137 88.512 47.4865 87.9575 46.4948 87.3231L46.5057 88.2301Z" fill="url(#paint6_linear)"/>
<path d="M141.096 42.0057C141.096 42.0057 129.639 41.8502 87.7738 43.4501C45.9101 45.05 46.5526 62.8447 46.5526 86.7679L46.5613 87.6528C47.5303 88.2872 48.5345 88.8416 49.5651 89.2934C49.5748 66.6525 50.4093 50.0403 90.7879 48.4975C132.652 46.8976 144.112 47.0531 144.112 47.0531C160.122 47.0531 171.144 53.2887 178.007 63.0174C171.689 50.4278 159.726 42.0057 141.096 42.0057" fill="url(#paint7_linear)"/>
<path d="M126.515 119.468V146.698C126.515 156.126 118.403 159.512 108.401 159.512C98.3991 159.512 90.292 156.126 90.292 146.698V105.252" fill="url(#paint8_linear)"/>
<path d="M88.9539 105.252V146.698C88.9539 155.921 95.8622 161 108.401 161C120.944 161 127.853 155.921 127.853 146.698V119.468C127.853 118.646 127.253 117.978 126.515 117.978C125.777 117.978 125.177 118.646 125.177 119.468V146.698C125.177 156.058 116.055 158.022 108.401 158.022C100.751 158.022 91.6302 156.058 91.6302 146.698V105.252C91.6302 104.43 91.0307 103.763 90.292 103.763C89.5531 103.763 88.9539 104.43 88.9539 105.252" fill="#363254"/>
<path d="M101.685 149.339C101.685 152.886 99.1274 155.762 95.9697 155.762C92.8123 155.762 90.2541 152.886 90.2541 149.339C90.2541 145.788 92.8123 137.773 95.9697 137.773C99.1274 137.773 101.685 145.788 101.685 149.339Z" fill="#8B9DD7"/>
<path d="M90.7004 149.339C90.7004 145.882 93.2482 138.267 95.9697 138.267C98.6915 138.267 101.239 145.882 101.239 149.339C101.239 152.609 98.8771 155.266 95.9697 155.266C93.066 155.266 90.7004 152.609 90.7004 149.339ZM89.8075 149.339C89.8075 153.154 92.5719 156.259 95.9697 156.259C99.368 156.259 102.132 153.154 102.132 149.339C102.132 145.742 99.5314 137.273 95.9697 137.273C92.4111 137.273 89.8075 145.742 89.8075 149.339Z" fill="#363254"/>
<path d="M91.2301 149.764C91.2301 146.587 94.43 140.881 96.7713 140.881C96.9942 140.881 97.2108 140.963 97.427 141.087C96.8372 140.083 96.1715 139.415 95.4645 139.415C93.1223 139.415 91.2301 146.592 91.2301 149.764Z" fill="#A6BDE6"/>
<path d="M106.341 149.841C106.341 154.519 103.692 158.326 100.424 158.326C97.1515 158.326 94.5027 154.519 94.5027 149.841C94.5027 145.157 97.1515 134.579 100.424 134.579C103.692 134.579 106.341 145.157 106.341 149.841Z" fill="#8B9DD7"/>
<path d="M94.9483 149.841C94.9483 145.228 97.5971 135.075 100.424 135.075C103.251 135.075 105.895 145.228 105.895 149.841C105.895 154.244 103.442 157.828 100.424 157.828C97.406 157.828 94.9483 154.244 94.9483 149.841ZM94.0565 149.841C94.0565 154.792 96.9135 158.822 100.424 158.822C103.934 158.822 106.787 154.792 106.787 149.841C106.787 145.139 104.1 134.084 100.424 134.084C96.7468 134.084 94.0565 145.139 94.0565 149.841" fill="#363254"/>
<path d="M96.0985 150.69C96.0985 146.179 99.3016 138.072 101.64 138.072C101.863 138.072 102.083 138.189 102.295 138.362C101.71 136.931 101.04 135.987 100.333 135.987C97.9909 135.987 96.0985 146.186 96.0985 150.69" fill="#A6BDE6"/>
<path d="M109.447 152.361C109.447 155.672 107.54 158.356 105.188 158.356C102.836 158.356 100.929 155.672 100.929 152.361C100.929 149.033 102.836 141.548 105.188 141.548C107.54 141.548 109.447 149.033 109.447 152.361Z" fill="#8B9DD7"/>
<path d="M101.375 152.361C101.375 148.774 103.397 142.044 105.188 142.044C106.982 142.044 109.001 148.774 109.001 152.361C109.001 155.395 107.292 157.859 105.188 157.859C103.086 157.859 101.375 155.395 101.375 152.361ZM100.483 152.361C100.483 155.941 102.595 158.853 105.188 158.853C107.785 158.853 109.892 155.941 109.892 152.361C109.892 149.1 108.018 141.052 105.188 141.052C102.359 141.052 100.483 149.1 100.483 152.361" fill="#363254"/>
<path d="M102.72 150.383C102.504 148.018 104.501 144.097 106.056 143.814C106.202 143.787 106.351 143.827 106.502 143.892C106.045 143.21 105.529 142.67 105.087 142.885C103.546 143.649 102.504 148.026 102.72 150.383" fill="#A6BDE6"/>
<path d="M181.939 100.755V145.633C181.939 155.061 173.828 158.445 163.826 158.445C153.823 158.445 145.717 155.061 145.717 145.633V119.848" fill="url(#paint9_linear)"/>
<path d="M180.599 100.755V145.633C180.599 154.992 171.478 156.955 163.826 156.955C156.177 156.955 147.056 154.992 147.056 145.633V119.848C147.056 119.026 146.457 118.358 145.717 118.358C144.979 118.358 144.379 119.026 144.379 119.848V145.633C144.379 154.855 151.286 159.935 163.826 159.935C176.368 159.935 183.276 154.855 183.276 145.633V100.755C183.276 99.9326 182.678 99.2675 181.939 99.2675C181.199 99.2675 180.599 99.9326 180.599 100.755" fill="#363254"/>
<path d="M157.11 148.274C157.11 151.818 154.552 154.694 151.395 154.694C148.237 154.694 145.68 151.818 145.68 148.274C145.68 144.723 148.237 136.706 151.395 136.706C154.552 136.706 157.11 144.723 157.11 148.274Z" fill="#8B9DD7"/>
<path d="M146.126 148.274C146.126 144.815 148.673 137.204 151.395 137.204C154.118 137.204 156.665 144.815 156.665 148.274C156.665 151.54 154.3 154.2 151.395 154.2C148.49 154.2 146.126 151.54 146.126 148.274V148.274ZM145.234 148.274C145.234 152.088 147.997 155.193 151.395 155.193C154.793 155.193 157.556 152.088 157.556 148.274C157.556 144.676 154.955 136.21 151.395 136.21C147.835 136.21 145.234 144.676 145.234 148.274Z" fill="#363254"/>
<path d="M146.655 148.696C146.655 145.521 149.854 139.816 152.196 139.816C152.42 139.816 152.636 139.896 152.852 140.019C152.263 139.016 151.598 138.349 150.89 138.349C148.548 138.349 146.655 145.525 146.655 148.696" fill="#A6BDE6"/>
<path d="M161.767 148.774C161.767 153.454 159.119 157.26 155.849 157.26C152.576 157.26 149.927 153.454 149.927 148.774C149.927 144.09 152.576 133.515 155.849 133.515C159.119 133.515 161.767 144.09 161.767 148.774Z" fill="#8B9DD7"/>
<path d="M150.373 148.774C150.373 144.16 153.02 134.01 155.849 134.01C158.676 134.01 161.321 144.16 161.321 148.774C161.321 153.178 158.865 156.763 155.849 156.763C152.829 156.763 150.373 153.178 150.373 148.774ZM149.481 148.774C149.481 153.726 152.337 157.755 155.849 157.755C159.358 157.755 162.213 153.726 162.213 148.774C162.213 144.074 159.526 133.016 155.849 133.016C152.169 133.016 149.481 144.074 149.481 148.774Z" fill="#363254"/>
<path d="M151.524 149.624C151.524 145.114 154.727 137.008 157.065 137.008C157.289 137.008 157.508 137.124 157.721 137.296C157.136 135.864 156.467 134.923 155.758 134.923C153.416 134.923 151.524 145.118 151.524 149.624Z" fill="#A6BDE6"/>
<path d="M164.871 151.294C164.871 154.607 162.965 157.291 160.614 157.291C158.262 157.291 156.355 154.607 156.355 151.294C156.355 147.967 158.262 140.481 160.614 140.481C162.965 140.481 164.871 147.967 164.871 151.294Z" fill="#8B9DD7"/>
<path d="M156.8 151.294C156.8 147.708 158.82 140.98 160.614 140.98C162.406 140.98 164.426 147.708 164.426 151.294C164.426 154.327 162.714 156.794 160.614 156.794C158.512 156.794 156.8 154.327 156.8 151.294ZM155.908 151.294C155.908 154.875 158.018 157.786 160.614 157.786C163.208 157.786 165.317 154.875 165.317 151.294C165.317 148.034 163.443 139.986 160.614 139.986C157.783 139.986 155.908 148.034 155.908 151.294" fill="#363254"/>
<path d="M158.146 149.318C157.931 146.952 159.926 143.033 161.481 142.749C161.627 142.722 161.777 142.759 161.927 142.827C161.47 142.144 160.955 141.607 160.513 141.817C158.971 142.581 157.931 146.96 158.146 149.318" fill="#A6BDE6"/>
<path d="M56.6851 61.6201C56.2125 62.3609 56.3792 63.3792 57.0604 63.8973C57.7389 64.4146 58.6743 64.2298 59.1464 63.4912C61.8374 59.2731 67.8902 58.1106 70.7678 59.3087C71.3412 59.5485 72.0658 59.4443 72.3826 59.0711C72.6991 58.7029 72.4921 58.2076 71.9174 57.9686C67.9774 56.3258 60.248 56.0283 56.6851 61.6201" fill="#363254"/>
<path d="M68.3485 80.162C65.8633 80.7664 63.6722 79.1622 63.4566 76.5803C63.2418 73.9942 65.0841 71.4102 67.57 70.8001C70.0578 70.1935 72.2482 71.7934 72.4655 74.381C72.6788 76.9664 70.8371 79.5497 68.3485 80.162V80.162ZM73.4876 74.0363C73.2385 71.0234 70.6508 69.1694 67.7019 69.8852C64.7566 70.6045 62.5686 73.6217 62.8161 76.6303C63.064 79.6375 65.6526 81.4964 68.5981 80.7835C71.5468 80.062 73.7355 77.0456 73.4876 74.0363" fill="#363254"/>
<path d="M72.3082 74.5893C72.4969 76.8622 70.8854 79.1386 68.7093 79.6695C66.5242 80.2062 64.6082 78.7918 64.4135 76.5189C64.2263 74.2461 65.8379 71.9718 68.0151 71.4402C70.198 70.9049 72.1192 72.3143 72.3082 74.5893Z" fill="#FCFCFC"/>
<path d="M71.9892 74.6122C71.3998 72.8802 69.8348 71.8762 68.5075 72.3586C67.7962 72.6126 67.3088 73.2471 67.0816 74.0399L68.9369 75.0989L67.2324 76.5183C67.864 78.1517 69.3581 79.0894 70.6474 78.6234C71.98 78.1353 72.5781 76.3434 71.9892 74.6122Z" fill="#363254"/>
<path d="M70.6233 73.87C70.9535 73.8151 71.3424 74.2761 71.4837 74.9162C71.6262 75.5484 71.4728 76.1108 71.1353 76.1707C70.8014 76.2285 70.4133 75.7639 70.2702 75.126C70.1315 74.4944 70.2881 73.9335 70.6233 73.87Z" fill="white"/>
<path d="M65.2261 71.2596C62.8999 73.3305 62.1646 76.3384 63.7362 78.0432C63.5999 77.9761 63.8966 78.4143 63.771 78.333C61.2964 76.7502 60.883 72.0503 63.1611 69.285C65.1166 66.9087 70.9849 65.1468 70.9415 66.0631C70.6993 67.1142 68.9814 68.4487 66.8482 69.8988C66.1615 70.349 65.6664 70.8686 65.2261 71.2596" fill="#363254"/>
<path d="M79.3755 44.9458C79.3755 44.9458 89.9859 36.5302 96.6876 33.6458C98.8236 32.7259 114.235 28.0289 116.734 58.7286C118.1 75.5377 115.64 87.1475 103.692 89.2505C96.5419 90.5108 97.6491 96.6586 97.6491 96.6586" fill="url(#paint10_linear)"/>
<path d="M96.2034 32.257C89.4236 35.1764 79.0382 43.3844 78.5981 43.7334C77.9975 44.2101 77.8568 45.1406 78.2864 45.8093C78.7146 46.4787 79.5514 46.6342 80.1526 46.1568C80.2572 46.0762 90.7038 37.8182 97.168 35.0337C97.3702 34.9481 102.128 32.9614 106.694 36.1163C111.448 39.4025 114.458 47.2665 115.403 58.8634C116.908 77.3974 113.343 86.0435 103.484 87.7812C100.688 88.2722 98.6538 89.5096 97.4338 91.4627C95.832 94.0196 96.3148 96.8334 96.3375 96.9526C96.4827 97.7525 97.1791 98.2685 97.9001 98.115C98.6222 97.9623 99.096 97.1823 98.9636 96.3781C98.9603 96.3638 98.6942 94.6312 99.6498 93.1326C100.442 91.8916 101.872 91.0795 103.902 90.7206C118.56 88.1401 119.173 72.1959 118.069 58.5944C117.031 45.85 113.677 37.4357 108.107 33.5872C102.515 29.723 96.8343 31.9859 96.2034 32.257" fill="#363254"/>
<path d="M90.2295 42.7194C102.243 34.0525 108.912 38.4841 108.912 38.4841C103.689 32.9743 97.8127 34.8004 96.5132 35.3627C89.8344 38.2471 76.9359 48.9071 76.9359 48.9071C76.9359 48.9071 75.1918 52.4759 78.6673 51.7016C78.6673 51.7016 86.227 45.6088 90.2295 42.7194" fill="url(#paint11_linear)"/>
<path d="M85.8943 83.6173C85.7899 90.6535 83.7706 97.061 80.6209 100.329C79.1918 101.814 77.5978 102.549 76.0069 102.46C75.5161 102.429 75.0978 102.849 75.0696 103.396C75.0461 103.946 75.4235 104.411 75.916 104.44C78.0003 104.561 80.0472 103.642 81.8389 101.782C85.3298 98.1564 87.5669 91.2087 87.6781 83.6465C87.6877 83.1013 87.2958 82.6482 86.8023 82.6396C86.3089 82.6317 85.9032 83.0692 85.8943 83.6173" fill="#363254"/>
<path d="M89.7587 78.5927C89.0868 80.3703 87.9124 81.5028 86.5341 81.6919C85.1904 81.8746 83.8252 81.1496 82.8809 79.7502C82.5868 79.3128 82.0255 79.2228 81.6318 79.5525C81.2382 79.8808 81.1578 80.5031 81.4543 80.9405C82.7869 82.9179 84.7685 83.9348 86.7531 83.6637C88.7835 83.3811 90.4769 81.8133 91.4045 79.3606C91.5947 78.8546 91.3794 78.2773 90.927 78.0625C90.4718 77.8506 89.9511 78.0882 89.7587 78.5927" fill="#363254"/>
<defs>
<filter id="filter0_d" x="1.5" y="24.5" width="184" height="184" filterUnits="userSpaceOnUse" color-interpolation-filters="sRGB">
<feFlood flood-opacity="0" result="BackgroundImageFix"/>
<feColorMatrix in="SourceAlpha" type="matrix" values="0 0 0 0 0 0 0 0 0 0 0 0 0 0 0 0 0 0 127 0"/>
<feOffset dx="-2" dy="2"/>
<feGaussianBlur stdDeviation="0.5"/>
<feColorMatrix type="matrix" values="0 0 0 0 0.309804 0 0 0 0 0.309804 0 0 0 0 0.309804 0 0 0 0.63 0"/>
<feBlend mode="normal" in2="BackgroundImageFix" result="effect1_dropShadow"/>
<feBlend mode="normal" in="SourceGraphic" in2="effect1_dropShadow" result="shape"/>
</filter>
<filter id="filter1_d" x="16.5" y="14.5" width="184" height="184" filterUnits="userSpaceOnUse" color-interpolation-filters="sRGB">
<feFlood flood-opacity="0" result="BackgroundImageFix"/>
<feColorMatrix in="SourceAlpha" type="matrix" values="0 0 0 0 0 0 0 0 0 0 0 0 0 0 0 0 0 0 127 0"/>
<feOffset dx="-2" dy="2"/>
<feGaussianBlur stdDeviation="0.5"/>
<feColorMatrix type="matrix" values="0 0 0 0 0.309804 0 0 0 0 0.309804 0 0 0 0 0.309804 0 0 0 0.63 0"/>
<feBlend mode="normal" in2="BackgroundImageFix" result="effect1_dropShadow"/>
<feBlend mode="normal" in="SourceGraphic" in2="effect1_dropShadow" result="shape"/>
</filter>
<filter id="filter2_d" x="31.5" y="4.5" width="184" height="184" filterUnits="userSpaceOnUse" color-interpolation-filters="sRGB">
<feFlood flood-opacity="0" result="BackgroundImageFix"/>
<feColorMatrix in="SourceAlpha" type="matrix" values="0 0 0 0 0 0 0 0 0 0 0 0 0 0 0 0 0 0 127 0"/>
<feOffset dx="-2" dy="2"/>
<feGaussianBlur stdDeviation="0.5"/>
<feColorMatrix type="matrix" values="0 0 0 0 0.309804 0 0 0 0 0.309804 0 0 0 0 0.309804 0 0 0 0.63 0"/>
<feBlend mode="normal" in2="BackgroundImageFix" result="effect1_dropShadow"/>
<feBlend mode="normal" in="SourceGraphic" in2="effect1_dropShadow" result="shape"/>
</filter>
<linearGradient id="paint0_linear" x1="109.713" y1="77.1819" x2="168.828" y2="115.371" gradientUnits="userSpaceOnUse">
<stop stop-color="#8C9BD6"/>
<stop offset="1" stop-color="#505E9B"/>
</linearGradient>
<linearGradient id="paint1_linear" x1="144.944" y1="23.9163" x2="204.551" y2="62.4228" gradientUnits="userSpaceOnUse">
<stop stop-color="#808FD0"/>
<stop offset="1" stop-color="#505E9B"/>
</linearGradient>
<linearGradient id="paint2_linear" x1="85.3385" y1="113.78" x2="144.195" y2="151.802" gradientUnits="userSpaceOnUse">
<stop stop-color="#8C9BD6"/>
<stop offset="1" stop-color="#505E9B"/>
</linearGradient>
<linearGradient id="paint3_linear" x1="105.518" y1="83.9634" x2="164.374" y2="121.985" gradientUnits="userSpaceOnUse">
<stop stop-color="#8C9BD6"/>
<stop offset="1" stop-color="#505E9B"/>
</linearGradient>
<linearGradient id="paint4_linear" x1="108.295" y1="78.5349" x2="165.426" y2="115.442" gradientUnits="userSpaceOnUse">
<stop stop-color="#808FD0"/>
<stop offset="1" stop-color="#505E9B"/>
</linearGradient>
<linearGradient id="paint5_linear" x1="99.3403" y1="93.351" x2="158.755" y2="131.733" gradientUnits="userSpaceOnUse">
<stop stop-color="#8C9BD6"/>
<stop offset="1" stop-color="#505E9B"/>
</linearGradient>
<linearGradient id="paint6_linear" x1="25.1848" y1="77.8834" x2="68.3231" y2="132.383" gradientUnits="userSpaceOnUse">
<stop stop-color="#FAFAFD"/>
<stop offset="1" stop-color="#8892D2"/>
</linearGradient>
<linearGradient id="paint7_linear" x1="84.2058" y1="28.0211" x2="134.472" y2="91.5253" gradientUnits="userSpaceOnUse">
<stop stop-color="#FAFAFD"/>
<stop offset="1" stop-color="#8892D2"/>
</linearGradient>
<linearGradient id="paint8_linear" x1="84.4879" y1="115.315" x2="143.314" y2="153.317" gradientUnits="userSpaceOnUse">
<stop stop-color="#8C9BD6"/>
<stop offset="1" stop-color="#505E9B"/>
</linearGradient>
<linearGradient id="paint9_linear" x1="108.74" y1="78.6263" x2="167.771" y2="116.76" gradientUnits="userSpaceOnUse">
<stop stop-color="#8C9BD6"/>
<stop offset="1" stop-color="#505E9B"/>
</linearGradient>
<linearGradient id="paint10_linear" x1="111.951" y1="73.8137" x2="170.891" y2="111.889" gradientUnits="userSpaceOnUse">
<stop stop-color="#8C9BD6"/>
<stop offset="1" stop-color="#505E9B"/>
</linearGradient>
<linearGradient id="paint11_linear" x1="83.1937" y1="28.7632" x2="134.566" y2="93.6653" gradientUnits="userSpaceOnUse">
<stop stop-color="#FAFAFD"/>
<stop offset="1" stop-color="#8892D2"/>
</linearGradient>
</defs>
</svg>
