<svg width="220" height="250" viewBox="0 0 220 250" fill="none" xmlns="http://www.w3.org/2000/svg">
<g filter="url(#filter0_d)">
<rect x="5" y="25" width="180" height="220" rx="5" fill="#4F4F4F"/>
<rect x="5" y="25" width="180" height="220" rx="5" stroke="#828282"/>
</g>
<g filter="url(#filter1_d)">
<rect x="20" y="15" width="180" height="220" rx="5" fill="#27AE60"/>
<rect x="20" y="15" width="180" height="220" rx="5" stroke="#828282"/>
</g>
<g filter="url(#filter2_d)">
<rect x="35" y="5" width="180" height="220" rx="5" fill="#F2F2F2"/>
<rect x="35" y="5" width="180" height="220" rx="5" stroke="#828282"/>
</g>
<g clip-path="url(#clip0)">
<path d="M169.428 152.539H79.5721C76.7841 152.539 74.524 154.813 74.524 157.617V207.383C74.524 210.187 76.7841 212.461 79.5721 212.461H169.428C172.216 212.461 174.476 210.187 174.476 207.383V157.617C174.476 154.813 172.216 152.539 169.428 152.539Z" stroke="#484C89" stroke-width="10"/>
<path d="M87.1442 199.766V165.234H97.2404L107.337 177.93L117.433 165.234H127.529V199.766H117.433V179.961L107.337 192.656L97.2404 179.961V199.766H87.1442ZM150.245 199.766L135.101 183.008H145.197V165.234H155.293V183.008H165.389L150.245 199.766Z" fill="#484C89"/>
</g>
<path d="M68.8727 39.3325C68.8727 39.3325 76.1431 30.0977 81.1785 26.2704C82.7828 25.0522 94.7151 17.847 102.377 42.645C106.569 56.2224 106.639 66.3364 97.111 70.6497C91.4052 73.2332 93.4445 78.0697 93.4445 78.0697" fill="url(#paint0_linear)"/>
<path d="M80.4821 25.1456C75.3742 29.0277 68.2432 38.0547 67.9424 38.4362C67.4965 39.0039 67.5488 39.8668 68.0623 40.3606C68.5743 40.8538 69.3526 40.797 69.7991 40.2287C69.8716 40.1366 77.0279 31.0776 81.8763 27.394C82.0215 27.2816 85.5584 24.6556 89.866 26.2358C94.396 27.8983 98.3203 33.7258 101.211 43.0859C105.814 57.9894 104.449 65.8575 96.6458 69.3869C94.3947 70.4086 92.9126 71.8849 92.2422 73.7838C91.3574 76.2883 92.2893 78.5505 92.3295 78.6472C92.6142 79.3259 93.3373 79.6139 93.9514 79.303C94.5672 78.9953 94.8405 78.1899 94.5661 77.506C94.5614 77.4929 94.0351 76.1512 94.5481 74.7454C94.9699 73.5853 95.989 72.6296 97.5778 71.9123C109.35 66.5813 106.948 53.2352 103.541 42.2021C100.346 31.8595 96.0061 25.6185 90.6421 23.6484C85.28 21.6802 80.9561 24.7869 80.4821 25.1456" fill="#363254"/>
<path d="M166.642 44.6798H181.911C183.193 44.6798 184.23 45.6551 184.23 46.8544C184.23 48.0544 183.193 49.0277 181.911 49.0277H169.926L166.642 44.6798" fill="url(#paint1_linear)"/>
<path d="M181.911 46.0424C182.552 46.0424 182.998 46.471 182.998 46.8544C182.998 47.2372 182.552 47.6657 181.911 47.6657C181.911 47.6657 171.546 47.6657 170.502 47.6657C170.256 47.343 169.889 46.8524 169.277 46.0424C172.885 46.0424 181.911 46.0424 181.911 46.0424ZM164.008 43.3171L169.351 50.3916H181.911C183.87 50.3916 185.462 48.8049 185.462 46.8544C185.462 44.9032 183.87 43.3171 181.911 43.3171H164.008Z" fill="#363254"/>
<path d="M186.637 39.6251C188.736 38.4774 191.189 38.7583 192.122 40.2515C193.051 41.7487 192.103 43.8868 190.004 45.0391C187.909 46.1855 182.416 47.5723 181.484 46.0731C180.552 44.5799 184.541 40.7722 186.637 39.6251Z" fill="#8B9DD7"/>
<path d="M187.181 40.8466C188.809 39.9569 190.597 40.2078 191.107 41.0263C191.249 41.2555 191.282 41.5188 191.208 41.8337C191.077 42.402 190.547 43.2211 189.457 43.8188C187.432 44.9254 183.837 45.5747 182.727 45.2612C183.137 44.2049 185.385 41.8304 187.181 40.8466V40.8466ZM186.091 38.4042C184.336 39.3625 180.765 42.4176 180.201 44.8326L180.472 46.8466C182.158 49.5653 188.963 47.1294 190.55 46.26C192.13 45.3944 193.239 44.0305 193.593 42.5176C193.846 41.4391 193.684 40.3606 193.136 39.4794C191.85 37.4178 188.758 36.9462 186.091 38.4042Z" fill="#363254"/>
<path d="M190.366 48.4476C192.617 49.3099 193.871 51.3068 193.176 52.9099C192.475 54.5148 190.087 55.1106 187.838 54.2457C185.593 53.3854 181.076 50.1415 181.773 48.5404C182.473 46.9321 188.121 47.5854 190.366 48.4476" fill="#8B9DD7"/>
<path d="M190.771 47.1614H190.769H190.771ZM189.963 49.7345H189.964C191.173 50.2002 191.835 50.9743 192.05 51.5452C192.213 51.9816 192.103 52.2377 192.065 52.3213C191.695 53.1718 189.979 53.6251 188.242 52.9582C186.257 52.1985 183.588 50.0578 183.086 49.0728C184.017 48.7148 187.791 48.9003 189.963 49.7345H189.963ZM180.664 47.9492L180.665 49.9265C181.532 52.2377 185.533 54.8055 187.436 55.5352C190.298 56.6359 193.308 55.7429 194.285 53.5056C194.492 53.0228 194.596 52.5048 194.596 51.9796C194.596 51.4845 194.505 50.9841 194.322 50.4942C193.77 49.0277 192.475 47.8146 190.769 47.1614C189.066 46.5062 181.951 44.992 180.664 47.9492" fill="#363254"/>
<path d="M190.695 43.5072C194.035 43.4824 196.755 44.8633 196.768 46.5951C196.784 48.3261 194.093 49.7489 190.751 49.7737C187.416 49.7998 179.859 48.4587 179.844 46.729C179.828 44.9953 187.36 43.536 190.695 43.5072" fill="#8B9DD7"/>
<path d="M195.537 46.6081C195.537 46.6741 195.483 46.8028 195.333 46.9713C194.73 47.6526 193.034 48.3934 190.744 48.4104C187.88 48.4326 183.35 47.5409 181.607 46.7133C183.337 45.8549 187.845 44.8927 190.705 44.8705H190.704C193.866 44.8464 195.534 46.1502 195.537 46.6081H195.537ZM190.688 42.1433H190.686C188.26 42.1635 181.055 43.144 179.207 45.2226L178.613 46.7427C178.647 50.7496 190.639 51.1376 190.76 51.1376C193.448 51.1161 195.874 50.2532 197.091 48.8833C197.694 48.2046 198.008 47.4103 198 46.5813C197.981 43.9808 194.905 42.1132 190.688 42.1433" fill="#363254"/>
<path d="M113.47 87.9244V122.926C113.47 131.556 106.008 134.649 96.8037 134.649C87.5984 134.649 80.1392 131.556 80.1392 122.926V87.5115" fill="url(#paint2_linear)"/>
<path d="M78.908 87.5115V122.926C78.908 131.366 85.2618 136.013 96.8037 136.013C108.345 136.013 114.702 131.366 114.702 122.926V87.9243C114.702 87.1712 114.15 86.5604 113.47 86.5604C112.79 86.5604 112.239 87.1712 112.239 87.9243V122.926C112.239 131.49 103.847 133.286 96.8037 133.286C89.7635 133.286 81.3709 131.49 81.3709 122.926V87.5115C81.3709 86.7596 80.819 86.1489 80.1392 86.1489C79.4596 86.1489 78.908 86.7596 78.908 87.5115" fill="#363254"/>
<path d="M87.4431 122.884C87.4431 126.376 85.6793 129.214 83.5027 129.214C81.3257 129.214 79.5615 126.376 79.5615 122.884C79.5615 119.386 81.3257 111.488 83.5027 111.488C85.6793 111.488 87.4431 119.386 87.4431 122.884" fill="#8B9DD7"/>
<path d="M79.9724 122.884C79.9724 119.08 81.8416 111.942 83.5027 111.942C85.1631 111.942 87.0329 119.08 87.0329 122.884C87.0329 126.125 85.4501 128.76 83.5027 128.76C81.5565 128.76 79.9724 126.125 79.9724 122.884ZM79.1506 122.884C79.1506 126.625 81.1023 129.67 83.5027 129.67C85.9022 129.67 87.853 126.625 87.853 122.884C87.853 119.467 86.1199 111.032 83.5027 111.032C80.8861 111.032 79.1506 119.467 79.1506 122.884Z" fill="#363254"/>
<path d="M80.6231 123.515C80.6231 120.151 82.756 114.096 84.313 114.096C84.4622 114.096 84.6083 114.182 84.749 114.312C84.3599 113.246 83.914 112.54 83.4417 112.54C81.8836 112.54 80.6231 120.153 80.6231 123.515Z" fill="#A6BDE6"/>
<path d="M89.3016 126.247C89.3016 128.945 87.8994 131.132 86.1683 131.132C84.4357 131.132 83.0314 128.945 83.0314 126.247C83.0314 123.541 84.4357 117.448 86.1683 117.448C87.8994 117.448 89.3016 123.541 89.3016 126.247Z" fill="#8B9DD7"/>
<path d="M83.4417 126.247C83.4417 123.419 84.9145 117.903 86.1684 117.903C87.4225 117.903 88.8907 123.419 88.8907 126.247C88.8907 128.689 87.6688 130.678 86.1684 130.678C84.6641 130.678 83.4417 128.689 83.4417 126.247ZM82.621 126.247C82.621 129.19 84.2125 131.587 86.1684 131.587C88.1213 131.587 89.7122 129.19 89.7122 126.247C89.7122 123.944 88.4547 116.993 86.1684 116.993C83.8784 116.993 82.621 123.944 82.621 126.247Z" fill="#363254"/>
<path d="M84.3496 124.64C84.192 122.717 85.6616 119.526 86.8065 119.293C86.9137 119.277 87.024 119.306 87.1336 119.359C86.798 118.807 86.4183 118.366 86.093 118.539C84.9596 119.16 84.192 122.724 84.3496 124.64" fill="#A6BDE6"/>
<path d="M164.457 88.3516V123.352C164.457 131.984 156.995 135.076 147.791 135.076C138.586 135.076 131.124 131.984 131.124 123.352V87.9387" fill="url(#paint3_linear)"/>
<path d="M129.892 87.9387V123.352C129.892 131.791 136.249 136.439 147.791 136.439C152.986 136.439 157.152 135.498 160.174 133.643C163.781 131.427 165.689 127.869 165.689 123.352V88.3516C165.689 87.599 165.137 86.9889 164.457 86.9889C163.778 86.9889 163.227 87.599 163.227 88.3516V123.352C163.227 126.918 161.837 129.504 158.978 131.26C156.363 132.864 152.495 133.713 147.791 133.713C140.749 133.713 132.356 131.914 132.356 123.352V87.9387C132.356 87.1849 131.804 86.5748 131.124 86.5748C130.444 86.5748 129.892 87.1849 129.892 87.9387" fill="#363254"/>
<path d="M138.43 123.31C138.43 126.801 136.667 129.644 134.49 129.644C132.31 129.644 130.548 126.801 130.548 123.31C130.548 119.814 132.31 111.916 134.49 111.916C136.667 111.916 138.43 119.814 138.43 123.31Z" fill="#7483CA"/>
<path d="M130.957 123.31C130.957 121.525 131.425 118.701 132.092 116.444C132.835 113.931 133.754 112.37 134.491 112.37C136.15 112.37 138.02 119.507 138.02 123.31C138.02 126.553 136.437 129.189 134.491 129.189C132.542 129.189 130.957 126.553 130.957 123.31ZM131.312 116.162C130.62 118.498 130.136 121.439 130.136 123.31C130.136 127.052 132.089 130.098 134.491 130.098C136.889 130.098 138.84 127.052 138.84 123.31C138.84 119.893 137.107 111.462 134.491 111.462C133.012 111.462 131.946 114.016 131.312 116.162" fill="#363254"/>
<path d="M131.612 123.945C131.612 120.581 133.743 114.521 135.3 114.521C135.45 114.521 135.595 114.609 135.737 114.738C135.346 113.673 134.902 112.967 134.43 112.967C132.87 112.967 131.612 120.581 131.612 123.945" fill="#839AD6"/>
<path d="M140.289 126.672C140.289 129.374 138.888 131.556 137.155 131.556C135.424 131.556 134.02 129.374 134.02 126.672C134.02 123.967 135.424 117.874 137.155 117.874C138.888 117.874 140.289 123.967 140.289 126.672Z" fill="#7483CA"/>
<path d="M134.431 126.672C134.431 123.844 135.901 118.33 137.155 118.33C138.408 118.33 139.878 123.844 139.878 126.672C139.878 129.115 138.656 131.104 137.155 131.104C135.652 131.104 134.431 129.115 134.431 126.672ZM133.61 126.672C133.61 129.619 135.2 132.012 137.155 132.012C139.11 132.012 140.7 129.619 140.7 126.672C140.7 124.369 139.442 117.42 137.155 117.42C134.867 117.42 133.61 124.369 133.61 126.672Z" fill="#363254"/>
<path d="M135.338 125.066C135.178 123.146 136.649 119.956 137.794 119.721C137.902 119.704 138.012 119.732 138.121 119.786C137.785 119.233 137.406 118.792 137.08 118.965C135.946 119.586 135.178 123.15 135.338 125.066Z" fill="#839AD6"/>
<path d="M99.4487 40.1209C105.94 52.2318 105.248 62.4627 96.5994 67.8257C91.4212 71.0383 94.2719 75.2752 94.2719 75.2752" fill="url(#paint4_linear)"/>
<path d="M98.821 38.9477C98.235 39.3324 98.0409 40.1692 98.3894 40.8166C102.003 47.5547 103.296 53.6571 102.131 58.4603C101.303 61.8748 99.2368 64.6255 95.9985 66.6368C93.9515 67.9054 92.7305 69.5058 92.3673 71.3911C91.8733 73.953 93.2273 76.0035 93.2853 76.0891C93.6891 76.6894 94.4511 76.8109 94.9974 76.37C95.5425 75.9284 95.6616 75.0772 95.2665 74.4697C95.2606 74.458 94.5101 73.2789 94.7807 71.9346C94.9974 70.8593 95.8122 69.8775 97.2011 69.0153C101.043 66.631 103.503 63.3197 104.51 59.1665C105.85 53.6369 104.468 46.81 100.507 39.4245C100.161 38.7765 99.4038 38.5642 98.821 38.9477" fill="#080604"/>
<path d="M137.367 31.5348C137.367 31.5348 126.59 31.3892 87.2137 32.8864C47.8397 34.3829 49.2928 50.585 49.2317 73.8531V129.819C49.2317 134.553 52.8062 136.463 57.2167 136.463C61.6266 136.463 65.2065 134.553 65.2065 129.819C65.2065 129.819 66.2233 113.828 67.1012 104.1C69.0651 68.7592 106.242 109.911 133.267 107.99C157.825 106.244 177.164 96.5163 177.164 73.3991C177.164 50.2767 164.49 31.5348 137.367 31.5348" fill="url(#paint5_linear)"/>
<path d="M50.4629 129.819V73.8531C50.4629 73.8583 50.466 71.3871 50.466 71.3871C50.4727 49.8645 50.478 35.6456 87.255 34.2477C126.121 32.7714 137.243 32.8955 137.352 32.8961H137.367C149.75 32.8961 159.84 36.9919 166.547 44.7392C172.688 51.8294 175.933 61.7396 175.933 73.3991C175.933 98.3512 152.688 105.243 133.188 106.63C122.925 107.358 110.819 101.535 100.139 96.3961C88.1663 90.6372 77.8269 85.6642 71.4611 89.9814C68.0987 92.2611 66.2711 96.852 65.8731 104.016C65.0079 113.599 63.9876 129.561 63.9781 129.724C63.9752 134.413 59.7408 135.1 57.2167 135.1C54.6951 135.1 50.4629 134.413 50.4629 129.819H50.4629ZM87.1721 31.525C48.0156 33.0124 48.0089 49.108 48.0031 71.3852L48 73.8492V129.819C48 134.832 51.446 137.829 57.2167 137.829C62.9926 137.829 66.4381 134.832 66.4381 129.819C66.4452 129.753 67.4605 113.83 68.3271 104.234C68.676 97.9717 70.1213 94.0882 72.7472 92.3056C78.0223 88.7304 88.2854 93.6682 99.157 98.8973C110.094 104.158 122.488 110.122 133.346 109.35C162.397 107.283 178.396 94.5154 178.396 73.3991C178.396 61.0243 174.913 50.4622 168.325 42.852C161.143 34.5567 150.437 30.1709 137.367 30.1709H137.382C137.274 30.1694 126.124 30.0409 87.1721 31.525" fill="#363254"/>
<path d="M50.3059 75.3875C50.3479 80.6434 49.7038 126.551 52.2305 129.308C51.4366 127.275 53.1733 82.7998 53.151 80.0046L53.1277 78.3689C53.1277 77.5902 53.1277 76.8227 53.1277 76.0584C52.1538 75.6456 51.2085 75.138 50.2959 74.5573L50.3059 75.3875Z" fill="url(#paint6_linear)"/>
<path d="M137.352 33.0745C137.352 33.0745 126.809 32.9321 88.2826 34.3966C49.7578 35.8612 50.349 52.1501 50.349 74.0491L50.357 74.8591C51.2487 75.4398 52.1729 75.9474 53.1212 76.3609C53.1301 55.6358 53.8982 40.4292 91.0563 39.0169C129.581 37.5524 140.128 37.6948 140.128 37.6948C154.861 37.6948 165.004 43.4027 171.319 52.3082C165.505 40.7839 154.497 33.0745 137.352 33.0745" fill="url(#paint7_linear)"/>
<path d="M123.934 103.982V128.908C123.934 137.539 116.469 140.638 107.265 140.638C98.0605 140.638 90.6 137.539 90.6 128.908V90.9691" fill="url(#paint8_linear)"/>
<path d="M89.3686 90.9691V128.908C89.3686 137.351 95.7259 142 107.265 142C118.808 142 125.166 137.351 125.166 128.908V103.982C125.166 103.23 124.613 102.619 123.934 102.619C123.255 102.619 122.702 103.23 122.702 103.982V128.908C122.702 137.476 114.308 139.274 107.265 139.274C100.225 139.274 91.8314 137.476 91.8314 128.908V90.9691C91.8314 90.2165 91.2798 89.6064 90.6 89.6064C89.92 89.6064 89.3686 90.2165 89.3686 90.9691" fill="#363254"/>
<path d="M101.084 131.326C101.084 134.572 98.7307 137.205 95.8249 137.205C92.9193 137.205 90.5651 134.572 90.5651 131.326C90.5651 128.075 92.9193 120.738 95.8249 120.738C98.7307 120.738 101.084 128.075 101.084 131.326Z" fill="#8B9DD7"/>
<path d="M90.9758 131.326C90.9758 128.161 93.3204 121.191 95.8249 121.191C98.3296 121.191 100.674 128.161 100.674 131.326C100.674 134.319 98.5004 136.751 95.8249 136.751C93.1527 136.751 90.9758 134.319 90.9758 131.326ZM90.1542 131.326C90.1542 134.818 92.698 137.66 95.8249 137.66C98.9522 137.66 101.496 134.818 101.496 131.326C101.496 128.033 99.1025 120.281 95.8249 120.281C92.5501 120.281 90.1542 128.033 90.1542 131.326Z" fill="#363254"/>
<path d="M91.4633 131.714C91.4633 128.807 94.408 123.584 96.5625 123.584C96.7677 123.584 96.9669 123.658 97.1659 123.772C96.6232 122.853 96.0105 122.242 95.3599 122.242C93.2045 122.242 91.4633 128.811 91.4633 131.714Z" fill="#A6BDE6"/>
<path d="M105.369 131.786C105.369 136.068 102.931 139.552 99.9241 139.552C96.9125 139.552 94.4749 136.068 94.4749 131.786C94.4749 127.498 96.9125 117.815 99.9241 117.815C102.931 117.815 105.369 127.498 105.369 131.786Z" fill="#8B9DD7"/>
<path d="M94.885 131.786C94.885 127.562 97.3225 118.268 99.9241 118.268C102.525 118.268 104.959 127.562 104.959 131.786C104.959 135.816 102.701 139.096 99.9241 139.096C97.1466 139.096 94.885 135.816 94.885 131.786ZM94.0642 131.786C94.0642 136.318 96.6934 140.006 99.9241 140.006C103.154 140.006 105.78 136.318 105.78 131.786C105.78 127.481 103.307 117.362 99.9241 117.362C96.54 117.362 94.0642 127.481 94.0642 131.786" fill="#363254"/>
<path d="M95.9434 132.562C95.9434 128.433 98.891 121.012 101.043 121.012C101.248 121.012 101.45 121.12 101.646 121.278C101.107 119.967 100.491 119.104 99.8406 119.104C97.6849 119.104 95.9434 128.439 95.9434 132.562" fill="#A6BDE6"/>
<path d="M108.227 134.092C108.227 137.123 106.473 139.58 104.308 139.58C102.143 139.58 100.389 137.123 100.389 134.092C100.389 131.045 102.143 124.194 104.308 124.194C106.473 124.194 108.227 131.045 108.227 134.092Z" fill="#8B9DD7"/>
<path d="M100.799 134.092C100.799 130.808 102.66 124.648 104.308 124.648C105.959 124.648 107.817 130.808 107.817 134.092C107.817 136.869 106.244 139.125 104.308 139.125C102.373 139.125 100.799 136.869 100.799 134.092ZM99.978 134.092C99.978 137.369 101.922 140.034 104.308 140.034C106.697 140.034 108.637 137.369 108.637 134.092C108.637 131.107 106.912 123.74 104.308 123.74C101.704 123.74 99.978 131.107 99.978 134.092" fill="#363254"/>
<path d="M102.037 132.281C101.838 130.117 103.675 126.528 105.106 126.268C105.241 126.244 105.379 126.28 105.517 126.34C105.097 125.716 104.622 125.221 104.215 125.418C102.797 126.117 101.838 130.124 102.037 132.281" fill="#A6BDE6"/>
<path d="M174.938 86.8531V127.933C174.938 136.563 167.474 139.661 158.27 139.661C149.064 139.661 141.605 136.563 141.605 127.933V104.33" fill="url(#paint9_linear)"/>
<path d="M173.705 86.853V127.933C173.705 136.501 165.311 138.298 158.27 138.298C151.23 138.298 142.837 136.501 142.837 127.933V104.33C142.837 103.578 142.285 102.966 141.605 102.966C140.925 102.966 140.374 103.578 140.374 104.33V127.933C140.374 136.375 146.729 141.025 158.27 141.025C169.811 141.025 176.168 136.375 176.168 127.933V86.853C176.168 86.0999 175.618 85.4911 174.938 85.4911C174.257 85.4911 173.705 86.0999 173.705 86.853" fill="#363254"/>
<path d="M152.089 130.35C152.089 133.595 149.735 136.228 146.83 136.228C143.924 136.228 141.57 133.595 141.57 130.35C141.57 127.1 143.924 119.762 146.83 119.762C149.735 119.762 152.089 127.1 152.089 130.35Z" fill="#8B9DD7"/>
<path d="M141.981 130.35C141.981 127.184 144.325 120.217 146.83 120.217C149.335 120.217 151.68 127.184 151.68 130.35C151.68 133.341 149.503 135.775 146.83 135.775C144.156 135.775 141.981 133.341 141.981 130.35V130.35ZM141.16 130.35C141.16 133.842 143.703 136.684 146.83 136.684C149.956 136.684 152.5 133.842 152.5 130.35C152.5 127.057 150.106 119.308 146.83 119.308C143.554 119.308 141.16 127.057 141.16 130.35Z" fill="#363254"/>
<path d="M142.468 130.737C142.468 127.831 145.412 122.608 147.567 122.608C147.773 122.608 147.971 122.682 148.171 122.794C147.629 121.876 147.016 121.265 146.365 121.265C144.21 121.265 142.468 127.835 142.468 130.737" fill="#A6BDE6"/>
<path d="M156.375 130.808C156.375 135.093 153.938 138.576 150.928 138.576C147.916 138.576 145.479 135.093 145.479 130.808C145.479 126.521 147.916 116.84 150.928 116.84C153.938 116.84 156.375 126.521 156.375 130.808Z" fill="#8B9DD7"/>
<path d="M145.89 130.808C145.89 126.585 148.326 117.294 150.928 117.294C153.53 117.294 155.964 126.585 155.964 130.808C155.964 134.84 153.704 138.122 150.928 138.122C148.149 138.122 145.89 134.84 145.89 130.808ZM145.069 130.808C145.069 135.342 147.697 139.029 150.928 139.029C154.157 139.029 156.785 135.342 156.785 130.808C156.785 126.506 154.312 116.384 150.928 116.384C147.542 116.384 145.069 126.506 145.069 130.808Z" fill="#363254"/>
<path d="M146.948 131.587C146.948 127.459 149.896 120.038 152.047 120.038C152.253 120.038 152.455 120.144 152.651 120.302C152.113 118.991 151.497 118.13 150.845 118.13C148.69 118.13 146.948 127.462 146.948 131.587Z" fill="#A6BDE6"/>
<path d="M159.231 133.115C159.231 136.148 157.477 138.605 155.313 138.605C153.149 138.605 151.394 136.148 151.394 133.115C151.394 130.07 153.149 123.217 155.313 123.217C157.477 123.217 159.231 130.07 159.231 133.115Z" fill="#8B9DD7"/>
<path d="M151.804 133.115C151.804 129.832 153.663 123.674 155.313 123.674C156.963 123.674 158.822 129.832 158.822 133.115C158.822 135.892 157.246 138.15 155.313 138.15C153.379 138.15 151.804 135.892 151.804 133.115ZM150.983 133.115C150.983 136.393 152.924 139.058 155.313 139.058C157.7 139.058 159.642 136.393 159.642 133.115C159.642 130.132 157.917 122.764 155.313 122.764C152.708 122.764 150.983 130.132 150.983 133.115" fill="#363254"/>
<path d="M153.042 131.306C152.844 129.141 154.681 125.553 156.112 125.293C156.246 125.269 156.384 125.303 156.522 125.364C156.101 124.739 155.627 124.248 155.22 124.441C153.802 125.14 152.844 129.148 153.042 131.306" fill="#A6BDE6"/>
<path d="M59.6733 51.0292C59.2384 51.7073 59.3919 52.6394 60.0187 53.1137C60.6431 53.5873 61.5039 53.4181 61.9383 52.742C64.4148 48.8807 69.9848 47.8166 72.6329 48.9134C73.1606 49.1329 73.8274 49.0375 74.1189 48.6959C74.4102 48.3588 74.2197 47.9055 73.6909 47.6866C70.065 46.1829 62.9521 45.9105 59.6733 51.0292" fill="#363254"/>
<path d="M70.4066 68.0021C68.1196 68.5554 66.1033 67.0869 65.9049 64.7235C65.7072 62.3562 67.4025 59.9909 69.6901 59.4324C71.9796 58.8771 73.9953 60.3417 74.1952 62.7103C74.3916 65.0769 72.6967 67.4416 70.4066 68.0021V68.0021ZM75.1358 62.3948C74.9066 59.6368 72.5253 57.9397 69.8116 58.5949C67.1012 59.2534 65.0877 62.0152 65.3154 64.7693C65.5436 67.522 67.9257 69.2237 70.6363 68.5711C73.3498 67.9107 75.364 65.1495 75.1358 62.3948" fill="#363254"/>
<path d="M74.0505 62.901C74.2241 64.9816 72.7412 67.0654 70.7386 67.5514C68.7278 68.0426 66.9646 66.7479 66.7854 64.6673C66.6131 62.5868 68.0962 60.505 70.0998 60.0183C72.1086 59.5284 73.8766 60.8185 74.0505 62.901Z" fill="#FCFCFC"/>
<path d="M73.757 62.9219C73.2146 61.3365 71.7744 60.4174 70.553 60.859C69.8983 61.0916 69.4498 61.6723 69.2408 62.398L70.9481 63.3674L69.3795 64.6667C69.9608 66.162 71.3357 67.0203 72.5222 66.5937C73.7485 66.1469 74.2988 64.5067 73.757 62.9219Z" fill="#363254"/>
<path d="M72.5 62.2426C72.8039 62.1923 73.1617 62.6142 73.2918 63.2002C73.4229 63.779 73.2818 64.2937 72.9711 64.3486C72.6638 64.4015 72.3067 63.9762 72.1751 63.3922C72.0474 62.8141 72.1915 62.3007 72.5 62.2426Z" fill="white"/>
<path d="M67.5333 59.853C65.3925 61.7487 64.7159 64.5021 66.1622 66.0626C66.0368 66.0012 66.3098 66.4023 66.1942 66.3279C63.9169 64.879 63.5365 60.5768 65.6329 58.0455C67.4325 55.8703 72.8328 54.2575 72.7928 55.0962C72.57 56.0584 70.989 57.28 69.0259 58.6073C68.394 59.0195 67.9384 59.4951 67.5333 59.853" fill="#363254"/>
<path d="M80.5541 35.7658C80.5541 35.7658 90.3183 28.0623 96.4855 25.4219C98.4512 24.5799 112.634 20.2803 114.933 48.3823C116.19 63.7692 113.926 74.3966 102.931 76.3217C96.3515 77.4753 97.3703 83.1028 97.3703 83.1028" fill="url(#paint10_linear)"/>
<path d="M96.0399 24.1507C89.8008 26.8231 80.2437 34.3365 79.8388 34.6559C79.286 35.0923 79.1566 35.9441 79.5519 36.5562C79.946 37.1689 80.716 37.3113 81.2692 36.8743C81.3656 36.8005 90.979 29.2413 96.9276 26.6924C97.1137 26.614 101.492 24.7954 105.694 27.6834C110.069 30.6915 112.839 37.8901 113.708 48.5058C115.093 65.4715 111.813 73.386 102.739 74.9766C100.167 75.4261 98.2949 76.5588 97.1722 78.3467C95.6981 80.6872 96.1424 83.2629 96.1633 83.372C96.297 84.1042 96.9378 84.5765 97.6014 84.4361C98.2658 84.2963 98.7018 83.5823 98.58 82.8461C98.577 82.833 98.3321 81.247 99.2115 79.8752C99.9402 78.7392 101.256 77.9959 103.124 77.6673C116.614 75.3052 117.178 60.7101 116.162 48.2595C115.206 36.5934 112.12 28.8912 106.994 25.3683C101.848 21.8311 96.6205 23.9025 96.0399 24.1507" fill="#363254"/>
<path d="M90.5424 33.7277C101.598 25.7942 107.735 29.8508 107.735 29.8508C102.928 24.8072 97.5209 26.4788 96.325 26.9936C90.1789 29.6339 78.3091 39.3919 78.3091 39.3919C78.3091 39.3919 76.7041 42.6587 79.9024 41.95C79.9024 41.95 86.8592 36.3727 90.5424 33.7277" fill="url(#paint11_linear)"/>
<path d="M86.5531 71.165C86.457 77.6059 84.5987 83.4713 81.7002 86.4631C80.3851 87.8224 78.9182 88.4952 77.4542 88.4129C77.0025 88.3849 76.6177 88.7696 76.5917 89.2706C76.5701 89.7736 76.9174 90.1995 77.3706 90.2257C79.2886 90.3367 81.1723 89.4953 82.8211 87.7924C86.0336 84.474 88.0922 78.1141 88.1945 71.1918C88.2034 70.6928 87.8427 70.278 87.3887 70.2701C86.9346 70.2629 86.5612 70.6634 86.5531 71.165" fill="#363254"/>
<path d="M90.1092 66.5657C89.4909 68.1929 88.4102 69.2295 87.1418 69.4026C85.9053 69.5699 84.6489 68.9062 83.7799 67.6252C83.5093 67.2248 82.9928 67.1425 82.6305 67.4442C82.2683 67.7447 82.1942 68.3144 82.4671 68.7148C83.6934 70.5249 85.517 71.4557 87.3433 71.2075C89.2118 70.9488 90.7701 69.5137 91.6238 67.2685C91.7988 66.8054 91.6007 66.2769 91.1844 66.0803C90.7655 65.8863 90.2863 66.1038 90.1092 66.5657" fill="#363254"/>
<defs>
<filter id="filter0_d" x="1.5" y="24.5" width="184" height="224" filterUnits="userSpaceOnUse" color-interpolation-filters="sRGB">
<feFlood flood-opacity="0" result="BackgroundImageFix"/>
<feColorMatrix in="SourceAlpha" type="matrix" values="0 0 0 0 0 0 0 0 0 0 0 0 0 0 0 0 0 0 127 0"/>
<feOffset dx="-2" dy="2"/>
<feGaussianBlur stdDeviation="0.5"/>
<feColorMatrix type="matrix" values="0 0 0 0 0.309804 0 0 0 0 0.309804 0 0 0 0 0.309804 0 0 0 0.63 0"/>
<feBlend mode="normal" in2="BackgroundImageFix" result="effect1_dropShadow"/>
<feBlend mode="normal" in="SourceGraphic" in2="effect1_dropShadow" result="shape"/>
</filter>
<filter id="filter1_d" x="16.5" y="14.5" width="184" height="224" filterUnits="userSpaceOnUse" color-interpolation-filters="sRGB">
<feFlood flood-opacity="0" result="BackgroundImageFix"/>
<feColorMatrix in="SourceAlpha" type="matrix" values="0 0 0 0 0 0 0 0 0 0 0 0 0 0 0 0 0 0 127 0"/>
<feOffset dx="-2" dy="2"/>
<feGaussianBlur stdDeviation="0.5"/>
<feColorMatrix type="matrix" values="0 0 0 0 0.309804 0 0 0 0 0.309804 0 0 0 0 0.309804 0 0 0 0.63 0"/>
<feBlend mode="normal" in2="BackgroundImageFix" result="effect1_dropShadow"/>
<feBlend mode="normal" in="SourceGraphic" in2="effect1_dropShadow" result="shape"/>
</filter>
<filter id="filter2_d" x="31.5" y="4.5" width="184" height="224" filterUnits="userSpaceOnUse" color-interpolation-filters="sRGB">
<feFlood flood-opacity="0" result="BackgroundImageFix"/>
<feColorMatrix in="SourceAlpha" type="matrix" values="0 0 0 0 0 0 0 0 0 0 0 0 0 0 0 0 0 0 127 0"/>
<feOffset dx="-2" dy="2"/>
<feGaussianBlur stdDeviation="0.5"/>
<feColorMatrix type="matrix" values="0 0 0 0 0.309804 0 0 0 0 0.309804 0 0 0 0 0.309804 0 0 0 0.63 0"/>
<feBlend mode="normal" in2="BackgroundImageFix" result="effect1_dropShadow"/>
<feBlend mode="normal" in="SourceGraphic" in2="effect1_dropShadow" result="shape"/>
</filter>
<linearGradient id="paint0_linear" x1="108.472" y1="65.2742" x2="162.703" y2="100.494" gradientUnits="userSpaceOnUse">
<stop stop-color="#8C9BD6"/>
<stop offset="1" stop-color="#505E9B"/>
</linearGradient>
<linearGradient id="paint1_linear" x1="140.893" y1="16.5157" x2="195.575" y2="52.0279" gradientUnits="userSpaceOnUse">
<stop stop-color="#808FD0"/>
<stop offset="1" stop-color="#505E9B"/>
</linearGradient>
<linearGradient id="paint2_linear" x1="86.0415" y1="98.7758" x2="140.035" y2="133.841" gradientUnits="userSpaceOnUse">
<stop stop-color="#8C9BD6"/>
<stop offset="1" stop-color="#505E9B"/>
</linearGradient>
<linearGradient id="paint3_linear" x1="104.612" y1="71.4819" x2="158.604" y2="106.547" gradientUnits="userSpaceOnUse">
<stop stop-color="#8C9BD6"/>
<stop offset="1" stop-color="#505E9B"/>
</linearGradient>
<linearGradient id="paint4_linear" x1="107.167" y1="66.5127" x2="159.578" y2="100.55" gradientUnits="userSpaceOnUse">
<stop stop-color="#808FD0"/>
<stop offset="1" stop-color="#505E9B"/>
</linearGradient>
<linearGradient id="paint5_linear" x1="98.9267" y1="80.0751" x2="153.432" y2="115.473" gradientUnits="userSpaceOnUse">
<stop stop-color="#8C9BD6"/>
<stop offset="1" stop-color="#505E9B"/>
</linearGradient>
<linearGradient id="paint6_linear" x1="30.6855" y1="65.9164" x2="70.1251" y2="116.007" gradientUnits="userSpaceOnUse">
<stop stop-color="#FAFAFD"/>
<stop offset="1" stop-color="#8892D2"/>
</linearGradient>
<linearGradient id="paint7_linear" x1="84.9992" y1="20.2731" x2="130.955" y2="78.6408" gradientUnits="userSpaceOnUse">
<stop stop-color="#FAFAFD"/>
<stop offset="1" stop-color="#8892D2"/>
</linearGradient>
<linearGradient id="paint8_linear" x1="85.2588" y1="100.181" x2="139.224" y2="135.228" gradientUnits="userSpaceOnUse">
<stop stop-color="#8C9BD6"/>
<stop offset="1" stop-color="#505E9B"/>
</linearGradient>
<linearGradient id="paint9_linear" x1="107.577" y1="66.5964" x2="161.73" y2="101.765" gradientUnits="userSpaceOnUse">
<stop stop-color="#8C9BD6"/>
<stop offset="1" stop-color="#505E9B"/>
</linearGradient>
<linearGradient id="paint10_linear" x1="110.532" y1="62.191" x2="164.601" y2="97.3055" gradientUnits="userSpaceOnUse">
<stop stop-color="#8C9BD6"/>
<stop offset="1" stop-color="#505E9B"/>
</linearGradient>
<linearGradient id="paint11_linear" x1="84.0678" y1="20.9525" x2="131.035" y2="80.605" gradientUnits="userSpaceOnUse">
<stop stop-color="#FAFAFD"/>
<stop offset="1" stop-color="#8892D2"/>
</linearGradient>
<clipPath id="clip0">
<rect width="105" height="65" fill="white" transform="translate(72 150)"/>
</clipPath>
</defs>
</svg>
