<svg width="1280" height="640" viewBox="0 0 1280 640" fill="none" xmlns="http://www.w3.org/2000/svg">
<g filter="url(#filter0_d)">
<rect x="85.7727" y="124.8" width="351.818" height="429.44" rx="5" fill="#4F4F4F"/>
<rect x="85.7727" y="124.8" width="351.818" height="429.44" rx="5" stroke="#828282"/>
</g>
<g filter="url(#filter1_d)">
<rect x="115.091" y="105.28" width="351.818" height="429.44" rx="5" fill="#27AE60"/>
<rect x="115.091" y="105.28" width="351.818" height="429.44" rx="5" stroke="#828282"/>
</g>
<g filter="url(#filter2_d)">
<rect x="144.409" y="85.76" width="351.818" height="429.44" rx="5" fill="#F2F2F2"/>
<rect x="144.409" y="85.76" width="351.818" height="429.44" rx="5" stroke="#828282"/>
</g>
<g clip-path="url(#clip0)">
<path d="M407.155 373.756H231.527C226.078 373.756 221.661 378.194 221.661 383.669V480.811C221.661 486.286 226.078 490.724 231.527 490.724H407.155C412.604 490.724 417.021 486.286 417.021 480.811V383.669C417.021 378.194 412.604 373.756 407.155 373.756Z" stroke="#484C89" stroke-width="10"/>
<path d="M246.327 465.943V398.538H266.061L285.794 423.319L305.528 398.538H325.261V465.943H305.528V427.284L285.794 452.065L266.061 427.284V465.943H246.327ZM369.661 465.943L340.061 433.231H359.794V398.538H379.528V433.231H399.261L369.661 465.943Z" fill="#484C89"/>
</g>
<path d="M210.615 152.777C210.615 152.777 224.825 134.751 234.667 127.28C237.803 124.902 261.125 110.837 276.101 159.243C284.295 185.746 284.432 205.489 265.808 213.908C254.656 218.951 258.641 228.392 258.641 228.392" fill="url(#paint0_linear)"/>
<path d="M233.306 125.084C223.322 132.662 209.384 150.283 208.796 151.027C207.925 152.136 208.027 153.82 209.031 154.784C210.032 155.747 211.553 155.636 212.425 154.526C212.567 154.347 226.555 136.663 236.031 129.473C236.315 129.254 243.228 124.128 251.647 127.212C260.501 130.457 268.171 141.833 273.822 160.104C282.818 189.195 280.15 204.554 264.899 211.443C260.499 213.438 257.602 216.319 256.292 220.026C254.562 224.915 256.384 229.331 256.462 229.519C257.019 230.844 258.432 231.406 259.632 230.799C260.836 230.199 261.37 228.627 260.834 227.292C260.825 227.266 259.796 224.647 260.799 221.903C261.623 219.638 263.615 217.773 266.72 216.373C289.729 205.967 285.035 179.915 278.376 158.378C272.13 138.19 263.648 126.007 253.164 122.162C242.684 118.32 234.232 124.384 233.306 125.084" fill="#363254"/>
<path d="M401.709 163.215H431.554C434.058 163.215 436.086 165.119 436.086 167.46C436.086 169.802 434.058 171.702 431.554 171.702H408.129L401.709 163.215" fill="url(#paint1_linear)"/>
<path d="M431.554 165.875C432.806 165.875 433.678 166.711 433.678 167.46C433.678 168.207 432.806 169.043 431.554 169.043C431.554 169.043 411.295 169.043 409.253 169.043C408.774 168.414 408.056 167.456 406.859 165.875C413.912 165.875 431.554 165.875 431.554 165.875ZM396.561 160.555L407.004 174.364H431.554C435.382 174.364 438.493 171.267 438.493 167.46C438.493 163.651 435.382 160.555 431.554 160.555H396.561Z" fill="#363254"/>
<path d="M440.79 153.348C444.893 151.108 449.688 151.656 451.512 154.571C453.327 157.494 451.474 161.667 447.372 163.916C443.276 166.154 432.539 168.861 430.719 165.935C428.897 163.02 436.693 155.587 440.79 153.348Z" fill="#8B9DD7"/>
<path d="M441.853 155.733C445.036 153.996 448.531 154.486 449.528 156.083C449.805 156.531 449.87 157.045 449.725 157.659C449.468 158.769 448.432 160.368 446.301 161.534C442.345 163.694 435.319 164.962 433.148 164.35C433.949 162.288 438.344 157.653 441.853 155.733V155.733ZM439.724 150.965C436.292 152.836 429.314 158.799 428.21 163.513L428.74 167.444C432.037 172.751 445.337 167.997 448.438 166.299C451.526 164.61 453.694 161.947 454.386 158.994C454.881 156.889 454.564 154.784 453.492 153.064C450.979 149.04 444.935 148.119 439.724 150.965Z" fill="#363254"/>
<path d="M448.079 170.57C452.479 172.253 454.929 176.151 453.571 179.28C452.202 182.413 447.534 183.576 443.138 181.888C438.749 180.208 429.92 173.876 431.283 170.751C432.652 167.612 443.69 168.887 448.079 170.57" fill="#8B9DD7"/>
<path d="M448.871 168.059H448.866H448.871ZM447.291 173.082H447.293C449.656 173.991 450.95 175.502 451.37 176.616C451.689 177.468 451.473 177.968 451.4 178.131C450.677 179.791 447.322 180.676 443.927 179.374C440.048 177.891 434.832 173.713 433.849 171.79C435.67 171.091 443.046 171.453 447.291 173.082H447.291ZM429.116 169.597L429.118 173.457C430.813 177.968 438.632 182.98 442.352 184.405C447.946 186.553 453.83 184.81 455.738 180.443C456.144 179.501 456.347 178.489 456.347 177.464C456.347 176.498 456.169 175.521 455.81 174.565C454.732 171.702 452.202 169.334 448.866 168.059C445.539 166.78 431.631 163.824 429.116 169.597" fill="#363254"/>
<path d="M448.723 160.926C455.25 160.878 460.567 163.573 460.592 166.954C460.624 170.333 455.363 173.11 448.832 173.158C442.314 173.209 427.543 170.591 427.513 167.215C427.483 163.831 442.204 160.982 448.723 160.926" fill="#8B9DD7"/>
<path d="M458.185 166.979C458.185 167.108 458.081 167.359 457.788 167.688C456.609 169.018 453.293 170.464 448.817 170.497C443.219 170.54 434.365 168.8 430.958 167.184C434.341 165.509 443.152 163.631 448.741 163.587H448.739C454.921 163.54 458.18 166.085 458.185 166.979H458.185ZM448.708 158.264H448.705C443.963 158.303 429.88 160.217 426.268 164.275L425.107 167.242C425.174 175.063 448.612 175.821 448.849 175.821C454.102 175.779 458.844 174.094 461.223 171.42C462.402 170.095 463.015 168.545 463 166.927C462.963 161.851 456.951 158.205 448.708 158.264" fill="#363254"/>
<path d="M297.783 247.628V315.951C297.783 332.798 283.197 338.836 265.207 338.836C247.215 338.836 232.636 332.798 232.636 315.951V246.822" fill="url(#paint2_linear)"/>
<path d="M230.229 246.822V315.951C230.229 332.427 242.648 341.497 265.207 341.497C287.766 341.497 300.19 332.427 300.19 315.951V247.628C300.19 246.158 299.112 244.966 297.783 244.966C296.454 244.966 295.377 246.158 295.377 247.628V315.951C295.377 332.668 278.973 336.174 265.207 336.174C251.447 336.174 235.043 332.668 235.043 315.951V246.822C235.043 245.355 233.964 244.163 232.636 244.163C231.307 244.163 230.229 245.355 230.229 246.822" fill="#363254"/>
<path d="M246.912 315.87C246.912 322.685 243.464 328.225 239.21 328.225C234.955 328.225 231.507 322.685 231.507 315.87C231.507 309.041 234.955 293.625 239.21 293.625C243.464 293.625 246.912 309.041 246.912 315.87" fill="#8B9DD7"/>
<path d="M232.31 315.87C232.31 308.445 235.963 294.511 239.21 294.511C242.455 294.511 246.11 308.445 246.11 315.87C246.11 322.197 243.016 327.34 239.21 327.34C235.406 327.34 232.31 322.197 232.31 315.87ZM230.703 315.87C230.703 323.172 234.518 329.115 239.21 329.115C243.9 329.115 247.713 323.172 247.713 315.87C247.713 309.199 244.325 292.735 239.21 292.735C234.096 292.735 230.703 309.199 230.703 315.87Z" fill="#363254"/>
<path d="M233.581 317.101C233.581 310.536 237.75 298.716 240.794 298.716C241.085 298.716 241.371 298.883 241.646 299.136C240.885 297.055 240.014 295.678 239.091 295.678C236.045 295.678 233.581 310.538 233.581 317.101Z" fill="#A6BDE6"/>
<path d="M250.544 322.434C250.544 327.7 247.803 331.97 244.42 331.97C241.033 331.97 238.289 327.7 238.289 322.434C238.289 317.152 241.033 305.258 244.42 305.258C247.803 305.258 250.544 317.152 250.544 322.434Z" fill="#8B9DD7"/>
<path d="M239.091 322.434C239.091 316.914 241.969 306.147 244.42 306.147C246.871 306.147 249.741 316.914 249.741 322.434C249.741 327.201 247.353 331.083 244.42 331.083C241.48 331.083 239.091 327.201 239.091 322.434ZM237.487 322.434C237.487 328.179 240.597 332.858 244.42 332.858C248.237 332.858 251.347 328.179 251.347 322.434C251.347 317.938 248.889 304.371 244.42 304.371C239.944 304.371 237.487 317.938 237.487 322.434Z" fill="#363254"/>
<path d="M240.865 319.297C240.557 315.544 243.429 309.315 245.667 308.86C245.877 308.828 246.092 308.886 246.307 308.989C245.651 307.91 244.909 307.051 244.273 307.388C242.057 308.6 240.557 315.557 240.865 319.297" fill="#A6BDE6"/>
<path d="M397.44 248.462V316.784C397.44 333.633 382.854 339.668 364.864 339.668C346.873 339.668 332.288 333.633 332.288 316.784V247.656" fill="url(#paint3_linear)"/>
<path d="M329.88 247.656V316.784C329.88 333.256 342.305 342.329 364.864 342.329C375.018 342.329 383.16 340.492 389.067 336.871C396.118 332.545 399.846 325.601 399.846 316.784V248.462C399.846 246.993 398.768 245.802 397.44 245.802C396.111 245.802 395.035 246.993 395.035 248.462V316.784C395.035 323.745 392.317 328.791 386.729 332.22C381.618 335.351 374.059 337.007 364.864 337.007C351.101 337.007 334.697 333.495 334.697 316.784V247.656C334.697 246.185 333.616 244.994 332.288 244.994C330.959 244.994 329.88 246.185 329.88 247.656" fill="#363254"/>
<path d="M346.567 316.701C346.567 323.516 343.121 329.066 338.868 329.066C334.606 329.066 331.162 323.516 331.162 316.701C331.162 309.877 334.606 294.459 338.868 294.459C343.121 294.459 346.567 309.877 346.567 316.701Z" fill="#7483CA"/>
<path d="M331.962 316.701C331.962 313.216 332.875 307.704 334.18 303.3C335.632 298.394 337.429 295.345 338.868 295.345C342.111 295.345 345.766 309.277 345.766 316.701C345.766 323.031 342.672 328.177 338.868 328.177C335.059 328.177 331.962 323.031 331.962 316.701ZM332.655 302.747C331.302 307.308 330.357 313.049 330.357 316.701C330.357 324.006 334.175 329.952 338.868 329.952C343.556 329.952 347.369 324.006 347.369 316.701C347.369 310.031 343.981 293.573 338.868 293.573C335.977 293.573 333.894 298.559 332.655 302.747" fill="#363254"/>
<path d="M333.241 317.942C333.241 311.374 337.407 299.546 340.45 299.546C340.743 299.546 341.027 299.718 341.303 299.968C340.54 297.891 339.671 296.511 338.749 296.511C335.701 296.511 333.241 311.374 333.241 317.942" fill="#839AD6"/>
<path d="M350.202 323.264C350.202 328.538 347.463 332.798 344.076 332.798C340.692 332.798 337.949 328.538 337.949 323.264C337.949 317.984 340.692 306.091 344.076 306.091C347.463 306.091 350.202 317.984 350.202 323.264Z" fill="#7483CA"/>
<path d="M338.752 323.264C338.752 317.744 341.625 306.979 344.076 306.979C346.524 306.979 349.399 317.744 349.399 323.264C349.399 328.033 347.01 331.915 344.076 331.915C341.139 331.915 338.752 328.033 338.752 323.264ZM337.148 323.264C337.148 329.016 340.255 333.688 344.076 333.688C347.897 333.688 351.004 329.016 351.004 323.264C351.004 318.769 348.545 305.205 344.076 305.205C339.603 305.205 337.148 318.769 337.148 323.264Z" fill="#363254"/>
<path d="M340.524 320.13C340.212 316.381 343.086 310.153 345.324 309.696C345.536 309.662 345.752 309.717 345.963 309.822C345.308 308.743 344.566 307.882 343.929 308.22C341.713 309.433 340.212 316.389 340.524 320.13Z" fill="#839AD6"/>
<path d="M270.377 154.316C283.064 177.956 281.712 197.927 264.808 208.396C254.687 214.667 260.259 222.937 260.259 222.937" fill="url(#paint4_linear)"/>
<path d="M269.15 152.026C268.005 152.777 267.625 154.41 268.306 155.674C275.369 168.827 277.896 180.739 275.619 190.115C274 196.78 269.963 202.149 263.633 206.075C259.632 208.551 257.246 211.675 256.536 215.355C255.571 220.356 258.217 224.359 258.33 224.526C259.12 225.698 260.609 225.935 261.677 225.074C262.742 224.212 262.975 222.551 262.203 221.365C262.191 221.342 260.724 219.04 261.253 216.416C261.677 214.317 263.269 212.401 265.984 210.718C273.493 206.064 278.301 199.6 280.27 191.493C282.89 180.699 280.188 167.373 272.446 152.957C271.769 151.692 270.289 151.277 269.15 152.026" fill="#080604"/>
<path d="M344.49 137.556C344.49 137.556 323.426 137.272 246.463 140.194C169.505 143.115 172.345 174.742 172.226 220.161V329.407C172.226 338.648 179.212 342.375 187.833 342.375C196.452 342.375 203.449 338.648 203.449 329.407C203.449 329.407 205.436 298.191 207.152 279.203C210.991 210.218 283.654 290.546 336.476 286.797C384.475 283.387 422.275 264.4 422.275 219.275C422.275 174.14 397.503 137.556 344.49 137.556" fill="url(#paint5_linear)"/>
<path d="M174.632 329.407V220.161C174.632 220.171 174.638 215.348 174.638 215.348C174.651 173.335 174.662 145.58 246.544 142.851C322.509 139.97 344.248 140.212 344.461 140.213H344.49C368.693 140.213 388.415 148.208 401.524 163.331C413.526 177.171 419.869 196.516 419.869 219.275C419.869 267.982 374.435 281.434 336.322 284.142C316.263 285.563 292.602 274.196 271.726 264.165C248.325 252.924 228.116 243.216 215.674 251.644C209.102 256.094 205.53 265.055 204.752 279.039C203.061 297.745 201.067 328.904 201.048 329.221C201.043 338.374 192.766 339.715 187.833 339.715C182.904 339.715 174.632 338.374 174.632 329.407H174.632ZM246.382 137.537C169.849 140.44 169.836 171.859 169.824 215.344L169.818 220.154V329.407C169.818 339.193 176.553 345.041 187.833 345.041C199.122 345.041 205.856 339.193 205.856 329.407C205.87 329.279 207.855 298.195 209.548 279.465C210.23 267.241 213.055 259.66 218.188 256.18C228.498 249.202 248.558 258.84 269.807 269.048C291.183 279.317 315.409 290.959 336.63 289.452C393.412 285.416 424.682 260.494 424.682 219.275C424.682 195.119 417.875 174.502 405 159.647C390.962 143.455 370.037 134.894 344.49 134.894H344.519C344.309 134.891 322.516 134.64 246.382 137.537" fill="#363254"/>
<path d="M174.325 223.156C174.407 233.416 173.148 323.028 178.087 328.409C176.535 324.441 179.93 237.625 179.886 232.169L179.84 228.976C179.84 227.456 179.84 225.958 179.84 224.466C177.937 223.66 176.089 222.669 174.306 221.536L174.325 223.156Z" fill="url(#paint6_linear)"/>
<path d="M344.461 140.561C344.461 140.561 323.854 140.283 248.552 143.142C173.254 146.001 174.409 177.797 174.409 220.544L174.425 222.125C176.168 223.258 177.974 224.249 179.828 225.056C179.845 184.601 181.346 154.918 253.974 152.161C329.273 149.302 349.886 149.58 349.886 149.58C378.683 149.58 398.508 160.722 410.851 178.106C399.487 155.61 377.971 140.561 344.461 140.561" fill="url(#paint7_linear)"/>
<path d="M318.234 278.973V327.629C318.234 344.475 303.644 350.526 285.654 350.526C267.664 350.526 253.082 344.475 253.082 327.629V253.572" fill="url(#paint8_linear)"/>
<path d="M250.675 253.572V327.629C250.675 344.109 263.101 353.184 285.654 353.184C308.215 353.184 320.642 344.109 320.642 327.629V278.973C320.642 277.504 319.562 276.312 318.234 276.312C316.907 276.312 315.828 277.504 315.828 278.973V327.629C315.828 344.354 299.421 347.864 285.654 347.864C271.895 347.864 255.489 344.354 255.489 327.629V253.572C255.489 252.103 254.411 250.912 253.082 250.912C251.753 250.912 250.675 252.103 250.675 253.572" fill="#363254"/>
<path d="M273.573 332.348C273.573 338.685 268.974 343.825 263.294 343.825C257.615 343.825 253.014 338.685 253.014 332.348C253.014 326.003 257.615 311.681 263.294 311.681C268.974 311.681 273.573 326.003 273.573 332.348Z" fill="#8B9DD7"/>
<path d="M253.816 332.348C253.816 326.17 258.399 312.564 263.294 312.564C268.19 312.564 272.772 326.17 272.772 332.348C272.772 338.19 268.523 342.939 263.294 342.939C258.071 342.939 253.816 338.19 253.816 332.348ZM252.21 332.348C252.21 339.164 257.183 344.713 263.294 344.713C269.407 344.713 274.378 339.164 274.378 332.348C274.378 325.92 269.7 310.788 263.294 310.788C256.893 310.788 252.21 325.92 252.21 332.348Z" fill="#363254"/>
<path d="M254.769 333.106C254.769 327.431 260.525 317.235 264.736 317.235C265.137 317.235 265.526 317.381 265.915 317.602C264.854 315.81 263.657 314.616 262.385 314.616C258.173 314.616 254.769 327.439 254.769 333.106Z" fill="#A6BDE6"/>
<path d="M281.948 333.245C281.948 341.604 277.184 348.405 271.306 348.405C265.42 348.405 260.656 341.604 260.656 333.245C260.656 324.876 265.42 305.975 271.306 305.975C277.184 305.975 281.948 324.876 281.948 333.245Z" fill="#8B9DD7"/>
<path d="M261.457 333.245C261.457 325.002 266.221 306.86 271.306 306.86C276.39 306.86 281.147 325.002 281.147 333.245C281.147 341.113 276.733 347.516 271.306 347.516C265.877 347.516 261.457 341.113 261.457 333.245ZM259.853 333.245C259.853 342.092 264.992 349.293 271.306 349.293C277.618 349.293 282.752 342.092 282.752 333.245C282.752 324.844 277.918 305.09 271.306 305.09C264.692 305.09 259.853 324.844 259.853 333.245" fill="#363254"/>
<path d="M263.526 334.762C263.526 326.702 269.287 312.216 273.493 312.216C273.894 312.216 274.289 312.425 274.672 312.734C273.618 310.176 272.414 308.49 271.143 308.49C266.93 308.49 263.526 326.713 263.526 334.762" fill="#A6BDE6"/>
<path d="M287.535 337.747C287.535 343.664 284.106 348.46 279.874 348.46C275.644 348.46 272.214 343.664 272.214 337.747C272.214 331.801 275.644 318.427 279.874 318.427C284.106 318.427 287.535 331.801 287.535 337.747Z" fill="#8B9DD7"/>
<path d="M273.016 337.747C273.016 331.338 276.654 319.314 279.874 319.314C283.102 319.314 286.733 331.338 286.733 337.747C286.733 343.168 283.658 347.571 279.874 347.571C276.094 347.571 273.016 343.168 273.016 337.747ZM271.411 337.747C271.411 344.144 275.211 349.347 279.874 349.347C284.545 349.347 288.336 344.144 288.336 337.747C288.336 331.921 284.965 317.541 279.874 317.541C274.785 317.541 271.411 331.921 271.411 337.747" fill="#363254"/>
<path d="M275.436 334.213C275.048 329.988 278.638 322.982 281.435 322.476C281.699 322.427 281.967 322.499 282.238 322.615C281.416 321.397 280.489 320.432 279.694 320.816C276.922 322.18 275.048 330.002 275.436 334.213" fill="#A6BDE6"/>
<path d="M417.924 245.537V325.726C417.924 342.572 403.335 348.618 385.345 348.618C367.353 348.618 352.773 342.572 352.773 325.726V279.653" fill="url(#paint9_linear)"/>
<path d="M415.514 245.537V325.726C415.514 342.449 399.107 345.957 385.345 345.957C371.587 345.957 355.181 342.449 355.181 325.726V279.653C355.181 278.184 354.103 276.99 352.773 276.99C351.445 276.99 350.367 278.184 350.367 279.653V325.726C350.367 342.204 362.789 351.282 385.345 351.282C407.904 351.282 420.328 342.204 420.328 325.726V245.537C420.328 244.067 419.253 242.879 417.924 242.879C416.593 242.879 415.514 244.067 415.514 245.537" fill="#363254"/>
<path d="M373.266 330.444C373.266 336.777 368.664 341.916 362.985 341.916C357.306 341.916 352.705 336.777 352.705 330.444C352.705 324.099 357.306 309.774 362.985 309.774C368.664 309.774 373.266 324.099 373.266 330.444Z" fill="#8B9DD7"/>
<path d="M353.509 330.444C353.509 324.264 358.089 310.665 362.985 310.665C367.883 310.665 372.465 324.264 372.465 330.444C372.465 336.281 368.211 341.034 362.985 341.034C357.76 341.034 353.509 336.281 353.509 330.444V330.444ZM351.903 330.444C351.903 337.261 356.873 342.807 362.985 342.807C369.097 342.807 374.068 337.261 374.068 330.444C374.068 324.015 369.389 308.888 362.985 308.888C356.583 308.888 351.903 324.015 351.903 330.444Z" fill="#363254"/>
<path d="M354.46 331.199C354.46 325.526 360.215 315.331 364.427 315.331C364.829 315.331 365.217 315.476 365.606 315.695C364.547 313.902 363.35 312.71 362.077 312.71C357.865 312.71 354.46 325.534 354.46 331.199" fill="#A6BDE6"/>
<path d="M381.641 331.338C381.641 339.701 376.878 346.501 370.996 346.501C365.109 346.501 360.346 339.701 360.346 331.338C360.346 322.968 365.109 304.072 370.996 304.072C376.878 304.072 381.641 322.968 381.641 331.338Z" fill="#8B9DD7"/>
<path d="M361.148 331.338C361.148 323.094 365.909 304.957 370.996 304.957C376.082 304.957 380.838 323.094 380.838 331.338C380.838 339.208 376.422 345.614 370.996 345.614C365.564 345.614 361.148 339.208 361.148 331.338ZM359.544 331.338C359.544 340.187 364.681 347.385 370.996 347.385C377.308 347.385 382.443 340.187 382.443 331.338C382.443 322.94 377.61 303.181 370.996 303.181C364.378 303.181 359.544 322.94 359.544 331.338Z" fill="#363254"/>
<path d="M363.217 332.858C363.217 324.799 368.979 310.314 373.183 310.314C373.586 310.314 373.98 310.522 374.364 310.829C373.311 308.271 372.107 306.589 370.833 306.589C366.621 306.589 363.217 324.805 363.217 332.858Z" fill="#A6BDE6"/>
<path d="M387.225 335.84C387.225 341.76 383.797 346.557 379.566 346.557C375.336 346.557 371.906 341.76 371.906 335.84C371.906 329.897 375.336 316.52 379.566 316.52C383.797 316.52 387.225 329.897 387.225 335.84Z" fill="#8B9DD7"/>
<path d="M372.707 335.84C372.707 329.433 376.341 317.411 379.566 317.411C382.791 317.411 386.425 329.433 386.425 335.84C386.425 341.261 383.345 345.669 379.566 345.669C375.786 345.669 372.707 341.261 372.707 335.84ZM371.103 335.84C371.103 342.24 374.898 347.441 379.566 347.441C384.233 347.441 388.027 342.24 388.027 335.84C388.027 330.017 384.656 315.635 379.566 315.635C374.475 315.635 371.103 330.017 371.103 335.84" fill="#363254"/>
<path d="M375.128 332.309C374.741 328.082 378.33 321.08 381.127 320.572C381.39 320.525 381.659 320.591 381.93 320.711C381.106 319.491 380.181 318.532 379.385 318.908C376.612 320.272 374.741 328.097 375.128 332.309" fill="#A6BDE6"/>
<path d="M192.634 175.609C191.784 176.933 192.084 178.752 193.309 179.678C194.53 180.602 196.212 180.272 197.061 178.952C201.902 171.415 212.788 169.338 217.964 171.479C218.996 171.907 220.299 171.721 220.869 171.054C221.438 170.396 221.066 169.511 220.032 169.084C212.945 166.149 199.043 165.617 192.634 175.609" fill="#363254"/>
<path d="M213.613 208.74C209.143 209.82 205.202 206.954 204.814 202.34C204.428 197.719 207.741 193.102 212.213 192.012C216.687 190.928 220.627 193.787 221.018 198.41C221.402 203.03 218.089 207.646 213.613 208.74V208.74ZM222.856 197.795C222.408 192.411 217.754 189.098 212.45 190.377C207.152 191.663 203.217 197.054 203.662 202.43C204.108 207.803 208.764 211.125 214.062 209.851C219.365 208.562 223.302 203.172 222.856 197.795" fill="#363254"/>
<path d="M220.735 198.783C221.074 202.844 218.176 206.912 214.262 207.86C210.332 208.819 206.885 206.292 206.535 202.231C206.198 198.169 209.097 194.106 213.013 193.156C216.94 192.199 220.395 194.718 220.735 198.783Z" fill="#FCFCFC"/>
<path d="M220.161 198.824C219.101 195.729 216.286 193.935 213.899 194.797C212.619 195.251 211.743 196.384 211.334 197.801L214.671 199.693L211.605 202.229C212.741 205.148 215.429 206.824 217.748 205.991C220.145 205.119 221.22 201.917 220.161 198.824Z" fill="#363254"/>
<path d="M217.704 197.497C218.298 197.399 218.998 198.223 219.252 199.367C219.508 200.497 219.233 201.501 218.625 201.608C218.025 201.712 217.327 200.882 217.069 199.742C216.82 198.613 217.102 197.611 217.704 197.497Z" fill="white"/>
<path d="M207.997 192.833C203.813 196.533 202.49 201.908 205.317 204.954C205.072 204.834 205.605 205.617 205.38 205.472C200.929 202.644 200.185 194.246 204.283 189.305C207.8 185.059 218.355 181.911 218.277 183.548C217.841 185.426 214.751 187.81 210.914 190.401C209.679 191.206 208.789 192.134 207.997 192.833" fill="#363254"/>
<path d="M233.447 145.815C233.447 145.815 252.531 130.777 264.585 125.624C268.427 123.98 296.148 115.587 300.641 170.442C303.098 200.477 298.674 221.222 277.184 224.98C264.323 227.232 266.315 238.217 266.315 238.217" fill="url(#paint10_linear)"/>
<path d="M263.714 123.142C251.52 128.359 232.84 143.025 232.048 143.648C230.968 144.5 230.715 146.163 231.488 147.358C232.258 148.554 233.763 148.832 234.844 147.979C235.033 147.835 253.823 133.079 265.449 128.104C265.813 127.951 274.37 124.401 282.584 130.038C291.134 135.91 296.548 149.961 298.248 170.683C300.955 203.8 294.543 219.249 276.809 222.354C271.781 223.232 268.122 225.443 265.928 228.933C263.046 233.501 263.915 238.529 263.956 238.742C264.217 240.171 265.469 241.093 266.766 240.819C268.065 240.546 268.917 239.153 268.679 237.716C268.673 237.69 268.194 234.594 269.913 231.916C271.338 229.699 273.91 228.248 277.561 227.607C303.927 222.996 305.03 194.506 303.044 170.202C301.175 147.43 295.143 132.396 285.125 125.519C275.067 118.614 264.849 122.658 263.714 123.142" fill="#363254"/>
<path d="M252.969 141.837C274.578 126.35 286.573 134.269 286.573 134.269C277.178 124.424 266.609 127.687 264.272 128.691C252.259 133.845 229.059 152.893 229.059 152.893C229.059 152.893 225.922 159.27 232.173 157.886C232.173 157.886 245.77 146.999 252.969 141.837" fill="url(#paint11_linear)"/>
<path d="M245.172 214.914C244.984 227.487 241.352 238.936 235.687 244.776C233.116 247.429 230.249 248.743 227.388 248.582C226.505 248.527 225.753 249.278 225.702 250.256C225.66 251.238 226.339 252.07 227.224 252.121C230.973 252.337 234.655 250.695 237.878 247.371C244.157 240.893 248.18 228.479 248.38 214.966C248.398 213.992 247.693 213.183 246.805 213.167C245.918 213.153 245.188 213.935 245.172 214.914" fill="#363254"/>
<path d="M252.123 205.936C250.914 209.112 248.802 211.136 246.323 211.474C243.906 211.8 241.45 210.505 239.752 208.004C239.223 207.223 238.213 207.062 237.505 207.651C236.797 208.238 236.652 209.35 237.186 210.131C239.583 213.665 243.147 215.482 246.716 214.997C250.369 214.492 253.414 211.691 255.083 207.308C255.425 206.404 255.038 205.373 254.224 204.989C253.405 204.61 252.469 205.035 252.123 205.936" fill="#363254"/>
<path d="M544.893 139.864V155H531.563V101.078H551.257C559.57 101.078 565.475 102.54 568.973 105.464C572.47 108.331 574.219 113.175 574.219 119.998C574.219 126.763 572.355 131.78 568.629 135.048C564.959 138.259 559.255 139.864 551.515 139.864H544.893ZM560.717 119.998C560.717 117.475 560.029 115.698 558.653 114.666C557.277 113.634 554.811 113.118 551.257 113.118H544.893V128.168H551.257C554.869 128.168 557.334 127.566 558.653 126.362C560.029 125.158 560.717 123.037 560.717 119.998ZM593.1 155H579.77V101.078H593.1V121.632H612.02V101.078H625.35V155H612.02V133.672H593.1V155ZM646.934 139.864V155H633.604V101.078H653.298C661.611 101.078 667.516 102.54 671.014 105.464C674.511 108.331 676.26 113.175 676.26 119.998C676.26 126.763 674.396 131.78 670.67 135.048C667 138.259 661.296 139.864 653.556 139.864H646.934ZM662.758 119.998C662.758 117.475 662.07 115.698 660.694 114.666C659.318 113.634 656.852 113.118 653.298 113.118H646.934V128.168H653.298C656.91 128.168 659.375 127.566 660.694 126.362C662.07 125.158 662.758 123.037 662.758 119.998ZM700.645 155H681.811V101.078H700.645C706.149 101.078 710.506 101.537 713.717 102.454C716.985 103.371 719.593 104.833 721.543 106.84C723.492 108.847 724.897 111.57 725.757 115.01C726.674 118.393 727.133 122.721 727.133 127.996C727.133 137.341 725.04 144.193 720.855 148.55C716.669 152.85 709.933 155 700.645 155ZM711.223 116.558C710.42 115.354 709.245 114.494 707.697 113.978C706.149 113.405 703.798 113.118 700.645 113.118H695.141V142.53H700.645C703.741 142.53 706.063 142.272 707.611 141.756C709.159 141.24 710.363 140.409 711.223 139.262C711.968 138.173 712.513 136.739 712.857 134.962C713.201 133.127 713.373 130.805 713.373 127.996C713.373 125.129 713.201 122.807 712.857 121.03C712.513 119.195 711.968 117.705 711.223 116.558ZM773.535 133.758C773.535 141.727 771.93 147.403 768.719 150.786C765.508 154.169 760.119 155.86 752.551 155.86C744.983 155.86 739.594 154.169 736.383 150.786C733.172 147.403 731.567 141.727 731.567 133.758C731.567 125.789 733.172 120.113 736.383 116.73C739.594 113.347 744.983 111.656 752.551 111.656C760.119 111.656 765.508 113.347 768.719 116.73C771.93 120.113 773.535 125.789 773.535 133.758ZM744.467 133.586C744.467 137.943 744.926 140.753 745.843 142.014C746.818 143.275 749.054 143.906 752.551 143.906C756.048 143.906 758.256 143.275 759.173 142.014C760.148 140.753 760.635 137.943 760.635 133.586C760.635 129.229 760.148 126.419 759.173 125.158C758.256 123.897 756.048 123.266 752.551 123.266C749.054 123.266 746.818 123.897 745.843 125.158C744.926 126.419 744.467 129.229 744.467 133.586ZM810.952 142.014V152.678C809.576 153.538 807.34 154.283 804.244 154.914C801.148 155.545 797.966 155.86 794.698 155.86C788.506 155.86 784.149 154.226 781.626 150.958C779.161 147.633 777.928 141.899 777.928 133.758C777.928 125.617 779.534 119.912 782.744 116.644C785.955 113.319 791.574 111.656 799.6 111.656C801.55 111.656 803.298 111.713 804.846 111.828C806.394 111.885 808.057 112.029 809.834 112.258V123.696C807.025 123.467 804.99 123.352 803.728 123.352C802.467 123.295 801.091 123.266 799.6 123.266C795.644 123.266 793.179 123.839 792.204 124.986C791.287 126.075 790.828 128.999 790.828 133.758C790.828 138.058 791.201 140.81 791.946 142.014C792.749 143.218 794.555 143.82 797.364 143.82C799.658 143.82 802.037 143.648 804.502 143.304C807.025 142.96 809.175 142.53 810.952 142.014ZM842.748 122.75V132.468H815.314V122.75H842.748ZM861.286 155L842.624 101.078H857.502L865.5 127.738C866.016 129.515 866.647 131.895 867.392 134.876C868.137 137.8 868.854 140.724 869.542 143.648C870.803 138.431 871.692 134.761 872.208 132.64C872.781 130.519 873.211 128.913 873.498 127.824L881.41 101.078H895.858L877.282 155H861.286ZM911.243 155.86C906.427 155.86 902.815 154.685 900.407 152.334C898.056 149.926 896.881 146.314 896.881 141.498V112.516H909.781V139.778C909.781 141.211 910.211 142.243 911.071 142.874C911.931 143.505 913.307 143.82 915.199 143.82C916.288 143.82 917.435 143.734 918.639 143.562C919.9 143.39 921.161 143.132 922.423 142.788V112.516H935.323V155H923.283L922.939 152.678H922.767C920.76 153.653 918.725 154.427 916.661 155C914.654 155.573 912.848 155.86 911.243 155.86ZM977.914 142.444V152.678C976.538 153.538 974.216 154.283 970.948 154.914C967.68 155.545 964.24 155.86 960.628 155.86C953.748 155.86 948.789 154.14 945.75 150.7C942.711 147.203 941.192 141.555 941.192 133.758C941.192 126.133 942.797 120.543 946.008 116.988C949.219 113.433 954.293 111.656 961.23 111.656C967.995 111.656 972.754 113.003 975.506 115.698C978.315 118.335 979.72 123.037 979.72 129.802C979.72 131.637 979.691 133.099 979.634 134.188C979.577 135.277 979.462 136.539 979.29 137.972H954.178C954.235 140.323 954.866 141.957 956.07 142.874C957.274 143.791 959.481 144.25 962.692 144.25C965.444 144.25 968.253 144.078 971.12 143.734C973.987 143.333 976.251 142.903 977.914 142.444ZM961.23 122.664C958.478 122.664 956.615 123.151 955.64 124.126C954.665 125.043 954.178 126.878 954.178 129.63H968.024V127.738C967.967 125.731 967.479 124.384 966.562 123.696C965.702 123.008 963.925 122.664 961.23 122.664ZM999.416 139.864V155H986.086V101.078H1005.78C1014.09 101.078 1020 102.54 1023.5 105.464C1026.99 108.331 1028.74 113.175 1028.74 119.998C1028.74 126.763 1026.88 131.78 1023.15 135.048C1019.48 138.259 1013.78 139.864 1006.04 139.864H999.416ZM1015.24 119.998C1015.24 117.475 1014.55 115.698 1013.18 114.666C1011.8 113.634 1009.33 113.118 1005.78 113.118H999.416V128.168H1005.78C1009.39 128.168 1011.86 127.566 1013.18 126.362C1014.55 125.158 1015.24 123.037 1015.24 119.998ZM1046.76 155H1033.86V112.516H1045.9L1046.33 115.784H1046.51C1048.57 114.523 1050.66 113.577 1052.78 112.946C1054.96 112.258 1057 111.914 1058.89 111.914H1059.58V124.384C1059.06 124.269 1058.49 124.212 1057.86 124.212C1057.28 124.155 1056.54 124.126 1055.62 124.126C1053.96 124.126 1052.38 124.241 1050.89 124.47C1049.4 124.642 1048.02 124.929 1046.76 125.33V155ZM1098.77 142.444V152.678C1097.39 153.538 1095.07 154.283 1091.8 154.914C1088.53 155.545 1085.09 155.86 1081.48 155.86C1074.6 155.86 1069.64 154.14 1066.6 150.7C1063.56 147.203 1062.05 141.555 1062.05 133.758C1062.05 126.133 1063.65 120.543 1066.86 116.988C1070.07 113.433 1075.15 111.656 1082.08 111.656C1088.85 111.656 1093.61 113.003 1096.36 115.698C1099.17 118.335 1100.57 123.037 1100.57 129.802C1100.57 131.637 1100.54 133.099 1100.49 134.188C1100.43 135.277 1100.32 136.539 1100.14 137.972H1075.03C1075.09 140.323 1075.72 141.957 1076.92 142.874C1078.13 143.791 1080.33 144.25 1083.55 144.25C1086.3 144.25 1089.11 144.078 1091.97 143.734C1094.84 143.333 1097.1 142.903 1098.77 142.444ZM1082.08 122.664C1079.33 122.664 1077.47 123.151 1076.49 124.126C1075.52 125.043 1075.03 126.878 1075.03 129.63H1088.88V127.738C1088.82 125.731 1088.33 124.384 1087.42 123.696C1086.56 123.008 1084.78 122.664 1082.08 122.664ZM1123.8 122.578C1121.39 122.578 1119.75 122.779 1118.89 123.18C1118.09 123.524 1117.69 124.355 1117.69 125.674C1117.69 126.19 1117.83 126.62 1118.12 126.964C1118.46 127.251 1118.92 127.423 1119.5 127.48L1129.73 128.856C1133.05 129.315 1135.38 130.404 1136.7 132.124C1138.07 133.787 1138.76 136.453 1138.76 140.122C1138.76 145.626 1137.53 149.639 1135.06 152.162C1132.6 154.627 1128.3 155.86 1122.16 155.86C1118.78 155.86 1115.71 155.717 1112.96 155.43C1110.26 155.201 1107.97 154.857 1106.08 154.398V143.218C1107.51 143.562 1109.49 143.877 1112.01 144.164C1114.59 144.393 1117.2 144.508 1119.84 144.508C1122.19 144.508 1123.77 144.279 1124.57 143.82C1125.43 143.304 1125.86 142.358 1125.86 140.982C1125.86 140.523 1125.72 140.151 1125.43 139.864C1125.14 139.52 1124.77 139.319 1124.31 139.262L1113.73 137.886C1110.64 137.485 1108.37 136.367 1106.94 134.532C1105.56 132.64 1104.88 129.859 1104.88 126.19C1104.88 121.374 1106.39 117.762 1109.43 115.354C1112.47 112.889 1116.97 111.656 1122.94 111.656C1125.29 111.656 1127.46 111.713 1129.47 111.828C1131.48 111.943 1133.6 112.172 1135.84 112.516V123.266C1134.4 123.037 1132.62 122.865 1130.5 122.75C1128.38 122.635 1126.15 122.578 1123.8 122.578ZM1161.67 122.578C1159.26 122.578 1157.63 122.779 1156.77 123.18C1155.97 123.524 1155.57 124.355 1155.57 125.674C1155.57 126.19 1155.71 126.62 1156 126.964C1156.34 127.251 1156.8 127.423 1157.37 127.48L1167.61 128.856C1170.93 129.315 1173.25 130.404 1174.57 132.124C1175.95 133.787 1176.64 136.453 1176.64 140.122C1176.64 145.626 1175.4 149.639 1172.94 152.162C1170.47 154.627 1166.17 155.86 1160.04 155.86C1156.66 155.86 1153.59 155.717 1150.84 155.43C1148.14 155.201 1145.85 154.857 1143.96 154.398V143.218C1145.39 143.562 1147.37 143.877 1149.89 144.164C1152.47 144.393 1155.08 144.508 1157.72 144.508C1160.07 144.508 1161.64 144.279 1162.45 143.82C1163.31 143.304 1163.74 142.358 1163.74 140.982C1163.74 140.523 1163.59 140.151 1163.31 139.864C1163.02 139.52 1162.65 139.319 1162.19 139.262L1151.61 137.886C1148.51 137.485 1146.25 136.367 1144.82 134.532C1143.44 132.64 1142.75 129.859 1142.75 126.19C1142.75 121.374 1144.27 117.762 1147.31 115.354C1150.35 112.889 1154.85 111.656 1160.81 111.656C1163.16 111.656 1165.34 111.713 1167.35 111.828C1169.36 111.943 1171.48 112.172 1173.71 112.516V123.266C1172.28 123.037 1170.5 122.865 1168.38 122.75C1166.26 122.635 1164.02 122.578 1161.67 122.578Z" fill="black"/>
<g clip-path="url(#clip1)">
<g clip-path="url(#clip2)">
<rect x="532.937" y="257" width="260.4" height="310" rx="40" fill="white"/>
<rect x="539.137" y="263.2" width="248" height="297.6" rx="40" fill="#8DD35F"/>
<rect x="545.337" y="269.4" width="235.6" height="285.2" rx="40" fill="white"/>
<rect x="539.137" y="263.2" width="248" height="235.6" rx="40" fill="#8DD35F"/>
<path d="M539.137 372.32V399.29L720.797 506.24C685.147 416.34 724.207 334.81 787.137 281.8V265.99L539.137 372.32Z" fill="white"/>
<path d="M754.897 300.71C733.197 317.14 693.207 348.45 693.207 466.87L558.357 386.89L754.897 300.71Z" fill="#8DD35F"/>
<path d="M581.746 529.937C581.746 532.447 581.292 534.317 580.384 535.547C579.485 536.778 578.211 537.393 576.561 537.393C574.969 537.393 573.743 536.792 572.884 535.591V543.194H570.306V521.25H572.649L572.781 523.008C573.65 521.641 574.896 520.957 576.517 520.957C578.255 520.957 579.554 521.563 580.413 522.774C581.272 523.985 581.717 525.796 581.746 528.208V529.937ZM579.168 528.457C579.168 526.68 578.895 525.371 578.348 524.532C577.801 523.682 576.922 523.257 575.711 523.257C574.471 523.257 573.528 523.877 572.884 525.118V533.365C573.519 534.576 574.471 535.181 575.74 535.181C576.912 535.181 577.772 534.761 578.318 533.921C578.875 533.072 579.158 531.778 579.168 530.039V528.457ZM587.679 522.876C588.665 521.597 589.925 520.957 591.458 520.957C594.261 520.957 595.682 522.828 595.721 526.568V537.1H593.143V526.685C593.143 525.445 592.933 524.566 592.513 524.048C592.103 523.521 591.482 523.257 590.652 523.257C590.008 523.257 589.427 523.472 588.909 523.902C588.401 524.331 587.991 524.893 587.679 525.586V537.1H585.086V514.6H587.679V522.876ZM611.043 529.937C611.043 532.447 610.589 534.317 609.681 535.547C608.782 536.778 607.508 537.393 605.857 537.393C604.266 537.393 603.04 536.792 602.181 535.591V543.194H599.603V521.25H601.946L602.078 523.008C602.947 521.641 604.192 520.957 605.814 520.957C607.552 520.957 608.851 521.563 609.71 522.774C610.569 523.985 611.014 525.796 611.043 528.208V529.937ZM608.465 528.457C608.465 526.68 608.191 525.371 607.645 524.532C607.098 523.682 606.219 523.257 605.008 523.257C603.768 523.257 602.825 523.877 602.181 525.118V533.365C602.815 534.576 603.768 535.181 605.037 535.181C606.209 535.181 607.068 534.761 607.615 533.921C608.172 533.072 608.455 531.778 608.465 530.039V528.457ZM614.163 537.1V515.772H619.803C622.293 515.772 624.275 516.563 625.75 518.145C627.234 519.727 627.991 521.895 628.021 524.649V528.106C628.021 530.909 627.278 533.111 625.794 534.712C624.319 536.304 622.283 537.1 619.686 537.1H614.163ZM618.47 519.361V533.526H619.759C621.194 533.526 622.205 533.15 622.791 532.398C623.377 531.636 623.685 530.328 623.714 528.472V524.766C623.714 522.774 623.436 521.387 622.879 520.606C622.322 519.815 621.375 519.4 620.037 519.361H618.47ZM630.438 528.662C630.438 526.26 631.004 524.375 632.137 523.008C633.27 521.641 634.837 520.957 636.839 520.957C638.86 520.957 640.438 521.641 641.57 523.008C642.703 524.375 643.27 526.27 643.27 528.692V529.703C643.27 532.115 642.708 533.999 641.585 535.357C640.462 536.714 638.89 537.393 636.868 537.393C634.837 537.393 633.255 536.714 632.122 535.357C630.999 533.99 630.438 532.095 630.438 529.673V528.662ZM634.598 529.703C634.598 532.535 635.355 533.951 636.868 533.951C638.265 533.951 639.017 532.769 639.124 530.406L639.139 528.662C639.139 527.217 638.939 526.148 638.538 525.454C638.138 524.751 637.571 524.4 636.839 524.4C636.136 524.4 635.584 524.751 635.184 525.454C634.793 526.148 634.598 527.217 634.598 528.662V529.703ZM651.59 533.951C652.791 533.951 653.401 533.169 653.421 531.607H657.317C657.298 533.335 656.766 534.732 655.721 535.796C654.676 536.861 653.328 537.393 651.678 537.393C649.637 537.393 648.079 536.758 647.005 535.489C645.931 534.219 645.384 532.349 645.364 529.878V528.619C645.364 526.128 645.892 524.229 646.946 522.92C648.011 521.612 649.578 520.957 651.648 520.957C653.397 520.957 654.773 521.499 655.779 522.583C656.785 523.658 657.298 525.186 657.317 527.168H653.421C653.411 526.28 653.265 525.596 652.981 525.118C652.698 524.639 652.23 524.4 651.575 524.4C650.853 524.4 650.335 524.659 650.022 525.176C649.71 525.684 649.544 526.675 649.524 528.15V529.761C649.524 531.05 649.588 531.953 649.715 532.471C649.842 532.979 650.052 533.355 650.345 533.599C650.638 533.833 651.053 533.951 651.59 533.951ZM667.454 535.65C666.595 536.812 665.442 537.393 663.997 537.393C662.542 537.393 661.439 536.895 660.687 535.899C659.935 534.893 659.559 533.433 659.559 531.519V521.25H663.704V531.621C663.724 533.164 664.236 533.936 665.242 533.936C666.189 533.936 666.873 533.526 667.293 532.705V521.25H671.468V537.1H667.571L667.454 535.65ZM678.323 521.25L678.44 522.715C679.368 521.543 680.594 520.957 682.117 520.957C683.699 520.957 684.817 521.67 685.472 523.096C686.38 521.67 687.674 520.957 689.354 520.957C692.127 520.957 693.548 522.876 693.616 526.714V537.1H689.471V526.978C689.471 526.06 689.344 525.406 689.09 525.015C688.836 524.624 688.406 524.429 687.801 524.429C687.029 524.429 686.453 524.903 686.072 525.85L686.102 526.348V537.1H681.956V527.007C681.956 526.099 681.834 525.445 681.59 525.044C681.346 524.634 680.911 524.429 680.286 524.429C679.573 524.429 679.007 524.815 678.587 525.586V537.1H674.441V521.25H678.323ZM703.094 537.393C700.965 537.393 699.305 536.758 698.113 535.489C696.922 534.219 696.326 532.403 696.326 530.039V528.78C696.326 526.28 696.873 524.351 697.967 522.994C699.061 521.636 700.628 520.957 702.669 520.957C704.661 520.957 706.16 521.597 707.166 522.876C708.172 524.146 708.685 526.031 708.704 528.531V530.567H700.457C700.516 531.739 700.774 532.598 701.233 533.145C701.692 533.682 702.4 533.951 703.357 533.951C704.744 533.951 705.901 533.477 706.829 532.53L708.455 535.035C707.947 535.738 707.21 536.309 706.243 536.748C705.276 537.178 704.227 537.393 703.094 537.393ZM700.486 527.666H704.632V527.286C704.612 526.338 704.456 525.62 704.163 525.132C703.87 524.644 703.362 524.4 702.64 524.4C701.917 524.4 701.39 524.659 701.058 525.176C700.735 525.694 700.545 526.524 700.486 527.666ZM714.842 521.25L714.959 522.818C715.897 521.578 717.122 520.957 718.636 520.957C721.36 520.957 722.762 522.867 722.84 526.685V537.1H718.68V526.993C718.68 526.094 718.543 525.445 718.27 525.044C718.006 524.634 717.537 524.429 716.863 524.429C716.111 524.429 715.525 524.815 715.105 525.586V537.1H710.945V521.25H714.842ZM730.633 517.354V521.25H732.757V524.37H730.633V532.237C730.633 532.862 730.716 533.291 730.882 533.526C731.058 533.76 731.39 533.877 731.878 533.877C732.278 533.877 732.605 533.843 732.859 533.775L732.83 536.997C732.127 537.261 731.365 537.393 730.545 537.393C727.869 537.393 726.517 535.86 726.487 532.793V524.37H724.656V521.25H726.487V517.354H730.633ZM734.119 528.662C734.119 526.26 734.686 524.375 735.818 523.008C736.951 521.641 738.519 520.957 740.521 520.957C742.542 520.957 744.119 521.641 745.252 523.008C746.385 524.375 746.951 526.27 746.951 528.692V529.703C746.951 532.115 746.39 533.999 745.267 535.357C744.144 536.714 742.571 537.393 740.55 537.393C738.519 537.393 736.937 536.714 735.804 535.357C734.681 533.99 734.119 532.095 734.119 529.673V528.662ZM738.279 529.703C738.279 532.535 739.036 533.951 740.55 533.951C741.946 533.951 742.698 532.769 742.806 530.406L742.82 528.662C742.82 527.217 742.62 526.148 742.22 525.454C741.819 524.751 741.253 524.4 740.521 524.4C739.817 524.4 739.266 524.751 738.865 525.454C738.475 526.148 738.279 527.217 738.279 528.662V529.703ZM757.366 525.249L755.989 525.132C754.856 525.132 754.09 525.63 753.689 526.626V537.1H749.529V521.25H753.44L753.558 522.964C754.212 521.626 755.115 520.957 756.268 520.957C756.736 520.957 757.117 521.021 757.41 521.148L757.366 525.249Z" fill="#8DD35F"/>
</g>
<g clip-path="url(#clip3)">
<path fill-rule="evenodd" clip-rule="evenodd" d="M900.466 333.617L1061.88 309.655C1066.2 309.015 1070.73 311.627 1072.02 315.505L1138.8 516.739C1140.43 521.678 1137.89 526.542 1133.09 527.584L952.323 566.773C946.974 567.934 941.678 564.513 940.515 559.157L893.491 342.391C892.591 338.243 895.72 334.321 900.466 333.617Z" fill="url(#paint12_linear)"/>
<path fill-rule="evenodd" clip-rule="evenodd" d="M901.475 331.452L1062.89 307.49C1067.21 306.851 1071.74 309.462 1073.03 313.341L1139.81 514.575C1141.45 519.514 1138.9 524.378 1134.1 525.418L953.333 564.609C947.984 565.769 942.687 562.349 941.525 556.993L894.498 340.229C893.598 336.078 896.728 332.159 901.475 331.452Z" fill="url(#paint13_linear)"/>
<path fill-rule="evenodd" clip-rule="evenodd" d="M916.783 307.369L1077.03 283.872C1081.32 283.242 1085.87 285.875 1087.21 289.763L1154.93 487.47C1156.56 492.221 1154.1 496.886 1149.42 497.866L973.965 534.722C968.795 535.808 963.568 532.534 962.308 527.429L910.114 316.093C909.092 311.959 912.085 308.058 916.783 307.369Z" fill="url(#paint14_linear)"/>
<path fill-rule="evenodd" clip-rule="evenodd" d="M917.79 305.206L1078.03 281.709C1082.33 281.079 1086.88 283.712 1088.21 287.6L1155.94 485.307C1157.57 490.059 1155.1 494.723 1150.42 495.704L974.972 532.56C969.803 533.646 964.575 530.371 963.315 525.266L911.123 313.93C910.102 309.794 913.092 305.893 917.79 305.206Z" fill="url(#paint15_linear)"/>
<path fill-rule="evenodd" clip-rule="evenodd" d="M933.999 281.998L1092.87 259.251C1097.13 258.64 1101.68 261.251 1103.03 265.094L1171.5 459.153C1173.13 463.788 1170.73 468.321 1166.12 469.264L993.404 504.559C988.323 505.598 983.133 502.402 981.83 497.437L927.504 290.572C926.43 286.497 929.347 282.664 933.999 281.998Z" fill="url(#paint16_linear)"/>
<path fill-rule="evenodd" clip-rule="evenodd" d="M935.007 279.833L1093.88 257.089C1098.14 256.478 1102.69 259.089 1104.04 262.932L1172.51 456.991C1174.14 461.626 1171.74 466.159 1167.12 467.102L994.411 502.397C989.33 503.435 984.141 500.24 982.838 495.275L928.512 288.412C927.44 284.335 930.354 280.499 935.007 279.833Z" fill="url(#paint17_linear)"/>
<path fill-rule="evenodd" clip-rule="evenodd" d="M1020.79 407.597L1090.78 394.626C1091.78 394.442 1092.75 395.029 1093.06 395.994L1104.81 433.33C1105.16 434.468 1104.45 435.667 1103.28 435.896L1032.28 449.718C1031.26 449.916 1030.26 449.298 1029.97 448.295L1019.23 410.105C1018.91 408.974 1019.63 407.811 1020.79 407.597ZM1014.75 410.919L1025.32 449.42C1026.14 452.406 1029.12 454.256 1032.16 453.666L1104.01 439.699C1107.49 439.02 1109.6 435.456 1108.52 432.079L1096.66 395.001C1095.76 392.175 1092.9 390.454 1089.98 390.974L1019.42 403.52C1015.99 404.131 1013.82 407.558 1014.75 410.919ZM1028.71 414.056L1036.11 440.023L1044.05 438.213L1039.81 423.262L1050.66 431.76L1055.94 419.798L1060.26 434.987L1067.98 433.335L1060.5 408.234L1052.31 409.65L1047.36 420.665L1036.65 412.559L1028.71 414.056ZM1086.3 417.548L1082.34 404.229L1074.1 405.637L1078.28 419.076L1070.88 420.508L1086.08 430.651L1093.79 416.092L1086.3 417.548Z" fill="#BCC0CF"/>
<path d="M1104.63 434.924L1103.79 436.666L1103.53 437.215C1103.24 437.646 1102.79 437.956 1102.27 438.052L1031.28 451.895C1030.25 452.086 1029.25 451.466 1028.96 450.463L1018.22 412.273C1018.1 411.819 1018.13 411.342 1018.32 410.936C1018.34 410.888 1018.37 410.84 1018.39 410.793L1018.46 410.649L1019.27 408.907C1019.13 409.265 1019.11 409.695 1019.22 410.1L1019.51 411.127L1029.97 448.291C1030.25 449.293 1031.25 449.914 1032.28 449.723L1103.24 435.903H1103.27C1103.89 435.784 1104.37 435.402 1104.63 434.924ZM1107.61 437.406C1107.87 436.404 1107.85 435.306 1107.52 434.232L1095.65 397.163C1094.75 394.347 1091.91 392.629 1088.97 393.13L1018.41 405.685C1016.86 405.947 1015.55 406.806 1014.71 408C1015.19 405.781 1016.98 403.943 1019.42 403.513L1090 390.982C1092.91 390.457 1095.77 392.175 1096.66 394.992L1108.52 432.084C1109.14 433.969 1108.73 435.95 1107.61 437.406ZM1093.79 416.092L1092.62 418.288L1085.29 419.72L1081.33 406.401L1074.7 407.547L1074.1 405.637L1082.34 404.229L1086.3 417.548L1093.79 416.092ZM1076.7 419.386L1078.28 419.076L1077.27 421.248L1073.17 422.035L1070.88 420.507L1076.7 419.386ZM1047.32 420.651L1046.34 422.823L1035.65 414.731L1029.23 415.924L1028.7 414.062L1036.65 412.559L1047.32 420.651ZM1067.97 433.325L1066.41 433.659L1059.49 410.387L1051.33 411.819L1052.31 409.647L1060.49 408.239L1067.97 433.325ZM1040.87 427.048L1039.8 423.252L1038.8 425.425L1042.55 438.552L1044.05 438.218L1040.87 427.048Z" fill="#A2A6B3"/>
<path d="M998.866 309.087L978.243 311.951L1051.57 380.121L1077.92 296.484L1058.44 299.922L1042.97 349.187L998.866 309.087Z" fill="url(#paint18_linear)"/>
<path d="M998.865 309.087L1017.77 306.223L1034.38 321.117L1040.68 302.786L1058.44 299.921L1042.97 349.187L998.865 309.087Z" fill="url(#paint19_linear)"/>
</g>
</g>
<defs>
<filter id="filter0_d" x="82.2727" y="124.3" width="355.818" height="433.44" filterUnits="userSpaceOnUse" color-interpolation-filters="sRGB">
<feFlood flood-opacity="0" result="BackgroundImageFix"/>
<feColorMatrix in="SourceAlpha" type="matrix" values="0 0 0 0 0 0 0 0 0 0 0 0 0 0 0 0 0 0 127 0"/>
<feOffset dx="-2" dy="2"/>
<feGaussianBlur stdDeviation="0.5"/>
<feColorMatrix type="matrix" values="0 0 0 0 0.309804 0 0 0 0 0.309804 0 0 0 0 0.309804 0 0 0 0.63 0"/>
<feBlend mode="normal" in2="BackgroundImageFix" result="effect1_dropShadow"/>
<feBlend mode="normal" in="SourceGraphic" in2="effect1_dropShadow" result="shape"/>
</filter>
<filter id="filter1_d" x="111.591" y="104.78" width="355.818" height="433.44" filterUnits="userSpaceOnUse" color-interpolation-filters="sRGB">
<feFlood flood-opacity="0" result="BackgroundImageFix"/>
<feColorMatrix in="SourceAlpha" type="matrix" values="0 0 0 0 0 0 0 0 0 0 0 0 0 0 0 0 0 0 127 0"/>
<feOffset dx="-2" dy="2"/>
<feGaussianBlur stdDeviation="0.5"/>
<feColorMatrix type="matrix" values="0 0 0 0 0.309804 0 0 0 0 0.309804 0 0 0 0 0.309804 0 0 0 0.63 0"/>
<feBlend mode="normal" in2="BackgroundImageFix" result="effect1_dropShadow"/>
<feBlend mode="normal" in="SourceGraphic" in2="effect1_dropShadow" result="shape"/>
</filter>
<filter id="filter2_d" x="140.909" y="85.26" width="355.818" height="433.44" filterUnits="userSpaceOnUse" color-interpolation-filters="sRGB">
<feFlood flood-opacity="0" result="BackgroundImageFix"/>
<feColorMatrix in="SourceAlpha" type="matrix" values="0 0 0 0 0 0 0 0 0 0 0 0 0 0 0 0 0 0 127 0"/>
<feOffset dx="-2" dy="2"/>
<feGaussianBlur stdDeviation="0.5"/>
<feColorMatrix type="matrix" values="0 0 0 0 0.309804 0 0 0 0 0.309804 0 0 0 0 0.309804 0 0 0 0.63 0"/>
<feBlend mode="normal" in2="BackgroundImageFix" result="effect1_dropShadow"/>
<feBlend mode="normal" in="SourceGraphic" in2="effect1_dropShadow" result="shape"/>
</filter>
<linearGradient id="paint0_linear" x1="288.013" y1="203.415" x2="393.928" y2="272.29" gradientUnits="userSpaceOnUse">
<stop stop-color="#8C9BD6"/>
<stop offset="1" stop-color="#505E9B"/>
</linearGradient>
<linearGradient id="paint1_linear" x1="351.381" y1="108.239" x2="458.177" y2="177.686" gradientUnits="userSpaceOnUse">
<stop stop-color="#808FD0"/>
<stop offset="1" stop-color="#505E9B"/>
</linearGradient>
<linearGradient id="paint2_linear" x1="244.172" y1="268.81" x2="349.622" y2="337.383" gradientUnits="userSpaceOnUse">
<stop stop-color="#8C9BD6"/>
<stop offset="1" stop-color="#505E9B"/>
</linearGradient>
<linearGradient id="paint3_linear" x1="280.469" y1="215.533" x2="385.918" y2="284.104" gradientUnits="userSpaceOnUse">
<stop stop-color="#8C9BD6"/>
<stop offset="1" stop-color="#505E9B"/>
</linearGradient>
<linearGradient id="paint4_linear" x1="285.463" y1="205.833" x2="387.823" y2="272.395" gradientUnits="userSpaceOnUse">
<stop stop-color="#808FD0"/>
<stop offset="1" stop-color="#505E9B"/>
</linearGradient>
<linearGradient id="paint5_linear" x1="269.357" y1="232.307" x2="375.807" y2="301.529" gradientUnits="userSpaceOnUse">
<stop stop-color="#8C9BD6"/>
<stop offset="1" stop-color="#505E9B"/>
</linearGradient>
<linearGradient id="paint6_linear" x1="135.976" y1="204.669" x2="212.939" y2="302.544" gradientUnits="userSpaceOnUse">
<stop stop-color="#FAFAFD"/>
<stop offset="1" stop-color="#8892D2"/>
</linearGradient>
<linearGradient id="paint7_linear" x1="242.135" y1="115.573" x2="331.814" y2="229.62" gradientUnits="userSpaceOnUse">
<stop stop-color="#FAFAFD"/>
<stop offset="1" stop-color="#8892D2"/>
</linearGradient>
<linearGradient id="paint8_linear" x1="242.642" y1="271.553" x2="348.038" y2="340.09" gradientUnits="userSpaceOnUse">
<stop stop-color="#8C9BD6"/>
<stop offset="1" stop-color="#505E9B"/>
</linearGradient>
<linearGradient id="paint9_linear" x1="286.264" y1="205.996" x2="392.026" y2="274.771" gradientUnits="userSpaceOnUse">
<stop stop-color="#8C9BD6"/>
<stop offset="1" stop-color="#505E9B"/>
</linearGradient>
<linearGradient id="paint10_linear" x1="292.04" y1="197.397" x2="397.639" y2="266.066" gradientUnits="userSpaceOnUse">
<stop stop-color="#8C9BD6"/>
<stop offset="1" stop-color="#505E9B"/>
</linearGradient>
<linearGradient id="paint11_linear" x1="240.314" y1="116.899" x2="331.967" y2="233.457" gradientUnits="userSpaceOnUse">
<stop stop-color="#FAFAFD"/>
<stop offset="1" stop-color="#8892D2"/>
</linearGradient>
<linearGradient id="paint12_linear" x1="1016.31" y1="566.997" x2="1016.31" y2="309.557" gradientUnits="userSpaceOnUse">
<stop stop-color="#1D2130"/>
<stop offset="1" stop-color="#3E445A"/>
</linearGradient>
<linearGradient id="paint13_linear" x1="1017.32" y1="564.834" x2="1017.32" y2="307.394" gradientUnits="userSpaceOnUse">
<stop stop-color="#262B3F"/>
<stop offset="1" stop-color="#656E91"/>
</linearGradient>
<linearGradient id="paint14_linear" x1="1032.67" y1="534.933" x2="1032.67" y2="283.778" gradientUnits="userSpaceOnUse">
<stop stop-color="#267550"/>
<stop offset="1" stop-color="#79B881"/>
</linearGradient>
<linearGradient id="paint15_linear" x1="1033.68" y1="532.769" x2="1033.68" y2="281.614" gradientUnits="userSpaceOnUse">
<stop stop-color="#279264"/>
<stop offset="1" stop-color="#A4F3AA"/>
</linearGradient>
<linearGradient id="paint16_linear" x1="1049.65" y1="504.758" x2="1049.65" y2="259.163" gradientUnits="userSpaceOnUse">
<stop offset="0.59" stop-color="#CECFD0"/>
<stop offset="1" stop-color="#DFDFDF"/>
</linearGradient>
<linearGradient id="paint17_linear" x1="1050.65" y1="502.595" x2="1050.65" y2="257" gradientUnits="userSpaceOnUse">
<stop stop-color="#EAEEF0"/>
<stop offset="0.41" stop-color="white"/>
</linearGradient>
<linearGradient id="paint18_linear" x1="1002.48" y1="220.472" x2="1106.11" y2="559.441" gradientUnits="userSpaceOnUse">
<stop offset="0.22" stop-color="#73CB8D"/>
<stop offset="0.4" stop-color="#2F9869"/>
</linearGradient>
<linearGradient id="paint19_linear" x1="989.223" y1="189.988" x2="1151.47" y2="661.196" gradientUnits="userSpaceOnUse">
<stop offset="0.25" stop-color="#586080"/>
<stop offset="0.35" stop-color="#2C3247"/>
</linearGradient>
<clipPath id="clip0">
<rect width="205.227" height="126.88" fill="white" transform="translate(216.727 368.8)"/>
</clipPath>
<clipPath id="clip1">
<rect width="640.127" height="310" fill="white" transform="translate(532.937 257)"/>
</clipPath>
<clipPath id="clip2">
<path d="M532.937 297C532.937 274.909 550.845 257 572.937 257H753.337C775.428 257 793.337 274.909 793.337 297V527C793.337 549.091 775.428 567 753.337 567H572.937C550.845 567 532.937 549.091 532.937 527V297Z" fill="white"/>
</clipPath>
<clipPath id="clip3">
<rect width="279.727" height="310" fill="white" transform="translate(893.337 257)"/>
</clipPath>
</defs>
</svg>
